<svg width="20" height="20" xmlns="http://www.w3.org/2000/svg" viewBox="0 0 24 24" class="SvgIconstyled__SvgIconStyled-sc-1i6f60b-0 coLXuD"><path d="M3.128 2.5a1.75 1.75 0 0 1 1.707 1.36l.027.15L5.136 6h15.74a.5.5 0 0 1 .489.608l-1.517 6.826A2 2 0 0 1 17.896 15H6.377l.128.92a1.25 1.25 0 0 0 1.115 1.074l.123.006H19a.75.75 0 0 1 .102 1.493L19 18.5h-1.677a2 2 0 1 1-2.647 0H9.324a2 2 0 1 1-2.46-.146 2.747 2.747 0 0 1-1.816-2.06l-.028-.168-1.643-11.91a.25.25 0 0 0-.187-.209L3.129 4H1.5a.75.75 0 0 1-.102-1.493L1.5 2.5h1.628z"></path></svg>