<svg width="18" height="18" viewBox="0 0 18 18" fill="none" xmlns="http://www.w3.org/2000/svg">
<path d="M3.75 14.25H3L2.5125 12.75H1.5V8.98125C1.5 8.56875 1.64687 8.21875 1.94063 7.93125C2.23438 7.64375 2.5875 7.5 3 7.5V5.25C3 4.8375 3.14688 4.48438 3.44063 4.19063C3.73438 3.89687 4.0875 3.75 4.5 3.75H13.5C13.9125 3.75 14.2656 3.89687 14.5594 4.19063C14.8531 4.48438 15 4.8375 15 5.25V7.5C15.4125 7.5 15.7656 7.64688 16.0594 7.94063C16.3531 8.23438 16.5 8.5875 16.5 9V12.75H15.4875L15 14.25H14.25L13.7625 12.75H4.2375L3.75 14.25ZM9.75 7.5H13.5V5.25H9.75V7.5ZM4.5 7.5H8.25V5.25H4.5V7.5Z" fill="#161A3F"/>
</svg>
