<svg width="18" height="18" viewBox="0 0 18 18" fill="none" xmlns="http://www.w3.org/2000/svg">
<path d="M1.125 13.875V3.375H2.24996V10.5H8.43748V4.875H14.25C14.9718 4.875 15.5898 5.13203 16.1039 5.64609C16.6179 6.16016 16.8749 6.77812 16.8749 7.49998V13.875H15.75V11.625H2.24996V13.875H1.125ZM5.24912 9.41822C4.71603 9.41822 4.26319 9.23164 3.89061 8.85849C3.51802 8.48533 3.33173 8.03221 3.33173 7.49914C3.33173 6.96605 3.5183 6.51321 3.89145 6.14062C4.26461 5.76804 4.71773 5.58174 5.25081 5.58174C5.78389 5.58174 6.23673 5.76832 6.60932 6.14147C6.98191 6.51463 7.1682 6.96775 7.1682 7.50083C7.1682 8.03391 6.98163 8.48675 6.60848 8.85934C6.23531 9.23193 5.78219 9.41822 5.24912 9.41822Z" fill="#2D40FF"/>
</svg>
