<?xml version="1.0" standalone="no"?>
<!DOCTYPE svg PUBLIC "-//W3C//DTD SVG 20010904//EN"
 "http://www.w3.org/TR/2001/REC-SVG-20010904/DTD/svg10.dtd">
<svg version="1.0" xmlns="http://www.w3.org/2000/svg"
 width="20px" height="20px" viewBox="0 0 20 20"
 preserveAspectRatio="xMidYMid meet">

<g transform="translate(0.000000,20) scale(0.100000,-0.100000)"
fill="#000000" stroke="none">
<path d="M663 5100 c-17 -10 -37 -28 -42 -39 -8 -14 -11 -767 -11 -2503 0
-2234 2 -2486 16 -2506 37 -53 30 -52 629 -52 620 0 613 -1 640 64 12 29 15
113 15 486 l0 450 650 0 650 0 0 -450 c0 -373 3 -457 15 -486 27 -65 20 -64
640 -64 599 0 592 -1 629 52 14 20 16 272 16 2508 0 2236 -2 2488 -16 2508
-38 55 85 52 -1936 52 -1827 0 -1864 0 -1895 -20z m1122 -594 c18 -8 38 -23
44 -34 7 -14 11 -116 11 -291 l0 -270 -24 -28 -24 -28 -268 -3 c-277 -3 -314
1 -334 38 -5 10 -10 142 -10 293 -1 296 1 308 50 326 14 5 137 10 273 10 192
1 255 -2 282 -13z m1081 -19 l24 -28 0 -277 c-1 -202 -4 -281 -13 -293 -28
-36 -52 -39 -317 -39 -265 0 -289 3 -317 39 -9 12 -12 91 -13 291 0 296 2 309
54 330 11 5 142 8 289 7 l269 -2 24 -28z m1020 23 c54 -19 55 -28 54 -327 0
-151 -5 -283 -10 -293 -20 -37 -57 -41 -334 -38 l-268 3 -24 28 -24 28 0 270
c0 174 4 277 11 290 22 43 60 48 320 49 142 0 258 -4 275 -10z m-2091 -1056
c40 -16 45 -51 45 -323 0 -276 -4 -300 -47 -320 -16 -7 -117 -11 -294 -11
l-270 0 -24 25 -25 24 -1 263 c-2 312 -3 297 24 326 20 22 23 22 298 22 153 0
285 -3 294 -6z m1070 -19 l25 -24 0 -279 c0 -261 -1 -281 -19 -303 l-19 -24
-292 0 -292 0 -19 24 c-18 22 -19 42 -19 303 l0 279 25 24 24 25 281 0 281 0
24 -25z m1052 3 c27 -29 26 -14 24 -326 l-1 -263 -25 -24 -24 -25 -270 0
c-177 0 -278 4 -294 11 -43 20 -47 44 -47 320 0 210 3 266 15 289 8 15 20 30
27 33 7 3 139 6 294 6 279 1 281 1 301 -21z m-2124 -1039 c43 -20 47 -44 47
-320 0 -272 -5 -307 -45 -323 -9 -3 -139 -6 -289 -6 -261 0 -274 1 -300 21
l-26 20 0 289 0 289 26 20 c26 20 39 21 295 21 175 0 277 -4 292 -11z m1072
-14 l25 -24 0 -281 0 -281 -25 -24 -24 -25 -281 0 -281 0 -24 25 -25 24 0 281
0 281 25 24 24 25 281 0 281 0 24 -25z m1049 4 l26 -20 0 -289 0 -289 -26 -20
c-26 -20 -39 -21 -300 -21 -150 0 -280 3 -289 6 -40 16 -45 51 -45 323 0 272
4 300 44 319 13 7 127 11 292 11 260 1 272 0 298 -20z"/>
</g>
</svg>
