<svg width="18" height="18" viewBox="0 0 18 18" fill="none" xmlns="http://www.w3.org/2000/svg">
<path d="M9 10.6154C8.84519 10.6154 8.71033 10.5579 8.59543 10.443C8.48053 10.3281 8.42308 10.1933 8.42308 10.0385C8.42308 9.88364 8.48053 9.74879 8.59543 9.63389C8.71033 9.51897 8.84519 9.46152 9 9.46152C9.15481 9.46152 9.28967 9.51897 9.40457 9.63389C9.51947 9.74879 9.57692 9.88364 9.57692 10.0385C9.57692 10.1933 9.51947 10.3281 9.40457 10.443C9.28967 10.5579 9.15481 10.6154 9 10.6154ZM6 10.6154C5.84519 10.6154 5.71033 10.5579 5.59543 10.443C5.48053 10.3281 5.42308 10.1933 5.42308 10.0385C5.42308 9.88364 5.48053 9.74879 5.59543 9.63389C5.71033 9.51897 5.84519 9.46152 6 9.46152C6.15481 9.46152 6.28967 9.51897 6.40457 9.63389C6.51947 9.74879 6.57692 9.88364 6.57692 10.0385C6.57692 10.1933 6.51947 10.3281 6.40457 10.443C6.28967 10.5579 6.15481 10.6154 6 10.6154ZM12 10.6154C11.8452 10.6154 11.7103 10.5579 11.5954 10.443C11.4805 10.3281 11.4231 10.1933 11.4231 10.0385C11.4231 9.88364 11.4805 9.74879 11.5954 9.63389C11.7103 9.51897 11.8452 9.46152 12 9.46152C12.1548 9.46152 12.2897 9.51897 12.4046 9.63389C12.5195 9.74879 12.5769 9.88364 12.5769 10.0385C12.5769 10.1933 12.5195 10.3281 12.4046 10.443C12.2897 10.5579 12.1548 10.6154 12 10.6154ZM9 13.5C8.84519 13.5 8.71033 13.4425 8.59543 13.3276C8.48053 13.2127 8.42308 13.0779 8.42308 12.9231C8.42308 12.7683 8.48053 12.6334 8.59543 12.5185C8.71033 12.4036 8.84519 12.3461 9 12.3461C9.15481 12.3461 9.28967 12.4036 9.40457 12.5185C9.51947 12.6334 9.57692 12.7683 9.57692 12.9231C9.57692 13.0779 9.51947 13.2127 9.40457 13.3276C9.28967 13.4425 9.15481 13.5 9 13.5ZM6 13.5C5.84519 13.5 5.71033 13.4425 5.59543 13.3276C5.48053 13.2127 5.42308 13.0779 5.42308 12.9231C5.42308 12.7683 5.48053 12.6334 5.59543 12.5185C5.71033 12.4036 5.84519 12.3461 6 12.3461C6.15481 12.3461 6.28967 12.4036 6.40457 12.5185C6.51947 12.6334 6.57692 12.7683 6.57692 12.9231C6.57692 13.0779 6.51947 13.2127 6.40457 13.3276C6.28967 13.4425 6.15481 13.5 6 13.5ZM12 13.5C11.8452 13.5 11.7103 13.4425 11.5954 13.3276C11.4805 13.2127 11.4231 13.0779 11.4231 12.9231C11.4231 12.7683 11.4805 12.6334 11.5954 12.5185C11.7103 12.4036 11.8452 12.3461 12 12.3461C12.1548 12.3461 12.2897 12.4036 12.4046 12.5185C12.5195 12.6334 12.5769 12.7683 12.5769 12.9231C12.5769 13.0779 12.5195 13.2127 12.4046 13.3276C12.2897 13.4425 12.1548 13.5 12 13.5ZM4.21153 15.75C3.86634 15.75 3.57812 15.6344 3.34688 15.4031C3.11563 15.1719 3 14.8836 3 14.5385V4.96152C3 4.61633 3.11563 4.32811 3.34688 4.09686C3.57812 3.86561 3.86634 3.74999 4.21153 3.74999H5.53845V2.0769H6.34614V3.74999H11.7115V2.0769H12.4616V3.74999H13.7885C14.1337 3.74999 14.4219 3.86561 14.6531 4.09686C14.8844 4.32811 15 4.61633 15 4.96152V14.5385C15 14.8836 14.8844 15.1719 14.6531 15.4031C14.4219 15.6344 14.1337 15.75 13.7885 15.75H4.21153ZM4.21153 15H13.7885C13.9038 15 14.0096 14.9519 14.1058 14.8558C14.2019 14.7596 14.25 14.6538 14.25 14.5385V7.96152H3.75V14.5385C3.75 14.6538 3.79808 14.7596 3.89423 14.8558C3.99039 14.9519 4.09616 15 4.21153 15Z" fill="#2D40FF"/>
</svg>
