<svg width="20" height="20" viewBox="0 0 20 20" fill="none" xmlns="http://www.w3.org/2000/svg">
<path d="M5.96152 17.9647C5.55662 17.9647 5.21234 17.8229 4.92869 17.5392C4.64503 17.2556 4.50321 16.9113 4.50321 16.5064C4.50321 16.1015 4.64503 15.7572 4.92869 15.4735C5.21234 15.1899 5.55662 15.0481 5.96152 15.0481C6.36644 15.0481 6.71072 15.1899 6.99437 15.4735C7.27803 15.7572 7.41985 16.1015 7.41985 16.5064C7.41985 16.9113 7.27803 17.2556 6.99437 17.5392C6.71072 17.8229 6.36644 17.9647 5.96152 17.9647ZM14.0384 17.9647C13.6335 17.9647 13.2892 17.8229 13.0056 17.5392C12.7219 17.2556 12.5801 16.9113 12.5801 16.5064C12.5801 16.1015 12.7219 15.7572 13.0056 15.4735C13.2892 15.1899 13.6335 15.0481 14.0384 15.0481C14.4433 15.0481 14.7876 15.1899 15.0713 15.4735C15.3549 15.7572 15.4967 16.1015 15.4967 16.5064C15.4967 16.9113 15.3549 17.2556 15.0713 17.5392C14.7876 17.8229 14.4433 17.9647 14.0384 17.9647ZM4.41344 3.54167H15.9839C16.3247 3.54167 16.5825 3.6867 16.7571 3.97675C16.9318 4.26682 16.9401 4.56303 16.782 4.86538L14.1121 9.70188C13.9754 9.94226 13.7946 10.1295 13.5697 10.2636C13.3448 10.3977 13.0983 10.4647 12.8301 10.4647H6.74998L5.78523 12.2275C5.74249 12.2916 5.74116 12.3611 5.78123 12.4359C5.8213 12.5107 5.8814 12.5481 5.96152 12.5481H15.4967V13.798H5.96152C5.40598 13.798 4.98851 13.5584 4.70913 13.0793C4.42975 12.6001 4.41987 12.1218 4.67948 11.6442L5.8686 9.50638L2.83654 3.12496H1.25V1.875H3.62177L4.41344 3.54167Z" fill="#fff"/>
</svg>
