<svg width="24" height="24" viewBox="0 0 24 24" fill="none" xmlns="http://www.w3.org/2000/svg"><g clip-path="url(#clip0_1309_153)"><path d="M21.0752 16.1397V17.6643C21.0752 19.5546 19.5454 21.0792 17.6555 21.0792H6.3445C4.45465 21.0792 2.9304 19.5546 2.9304 17.6643V6.35626C2.9304 4.46596 4.46028 2.93572 6.3445 2.93572H17.6555C19.5454 2.93572 21.0752 4.46596 21.0752 6.35626V8.17904H24.0056V4.52222C24.0056 2.02433 21.9808 0.00463867 19.4835 0.00463867H4.52215C2.02484 0.00463867 0 2.02996 0 4.52222V19.4814C0 21.9793 2.02484 23.999 4.52215 23.999H19.4835C21.9808 23.999 24.0056 21.9793 24.0056 19.4814V16.134H21.0752V16.1397Z" fill="#DD2827"></path><path d="M7.80188 10.7896H8.62889V9.87256H9.20835V12.1792H8.62889V11.2847H7.66686C7.55434 11.4872 7.35744 11.656 7.08739 11.7966C6.81173 11.9373 6.53606 12.0273 6.24351 12.0835C5.95659 12.1398 5.6528 12.1735 5.33212 12.1792L5.23648 11.7291C5.62467 11.7122 5.97347 11.6672 6.28852 11.5885C6.59794 11.5097 6.83423 11.4084 6.99738 11.2734H5.33212V10.7896H7.22804V10.542C7.22804 10.4914 7.22242 10.4633 7.21116 10.4464C7.19991 10.4295 7.16616 10.4239 7.11552 10.4239H5.38275V9.93444H7.11552C7.57685 9.93444 7.80751 10.1145 7.80751 10.4802V10.7896H7.80188ZM9.27024 14.4914H6.35603C5.88908 14.4914 5.65842 14.3058 5.65842 13.9288V13.1918H8.63451V12.8993H5.65842V12.393H9.21398V13.6925H6.24351V13.8613C6.24351 13.9063 6.24914 13.9401 6.26039 13.9569C6.27164 13.9682 6.3054 13.9794 6.35603 13.9794H9.27024V14.4914Z" fill="#272726"></path><path d="M12.8472 13.7093L12.4759 14.0638C12.2509 13.9288 12.0202 13.715 11.7952 13.4224C11.5702 13.1299 11.4014 12.8373 11.2945 12.5335C11.1932 12.8373 11.0245 13.1299 10.7994 13.4224C10.5744 13.7093 10.3493 13.9288 10.1243 14.0638L9.74738 13.7093C10.1412 13.4506 10.4506 13.0961 10.6756 12.6573C10.9007 12.2241 11.0076 11.7965 11.0076 11.3746V10.8514H9.98929V10.3507H11.0076V9.77686H11.587V10.3507H12.701V10.8514H11.587V11.3746C11.587 11.7965 11.6996 12.2241 11.919 12.6573C12.144 13.0961 12.4534 13.4506 12.8472 13.7093ZM13.8655 14.4913H13.2804V12.7586H12.2115V12.2466H13.2804V11.6165H12.2115V11.1158H13.2804V9.8725H13.8655V14.4913Z" fill="#272726"></path><path d="M17.6731 13.0962H17.088V12.6349H15.3159C14.8489 12.6349 14.6183 12.4436 14.6183 12.0554V11.0202H16.1372V10.5645C16.1372 10.5252 16.1316 10.497 16.1147 10.4858C16.0979 10.4745 16.0697 10.4689 16.0191 10.4689H14.6239V9.95132H16.0304C16.2666 9.95132 16.4467 10.0076 16.5592 10.1257C16.6717 10.2439 16.728 10.3958 16.728 10.587V11.5378H15.2146V11.9879C15.2146 12.0216 15.2146 12.0498 15.2202 12.061C15.2259 12.0723 15.2315 12.0835 15.2484 12.0948C15.2652 12.106 15.2877 12.1117 15.3271 12.1117H17.0993V9.87256H17.6844V11.0259H18.0557V9.87256H18.6351V13.0962H18.0557V11.5378H17.6844V13.0962H17.6731ZM18.6801 14.4858H15.7716C15.3046 14.4858 15.074 14.3001 15.074 13.9232V12.888H15.6647V13.8388C15.6647 13.8726 15.6647 13.9007 15.6703 13.9176C15.6703 13.9344 15.6815 13.9457 15.6984 13.9626C15.7153 13.9738 15.7434 13.9794 15.7716 13.9794H18.6801V14.4858Z" fill="#272726"></path><path d="M23.6288 14.2158H19.2754V13.7038H23.6288V14.2158ZM23.2013 12.7193H20.4059C19.9391 12.7193 19.7029 12.528 19.7029 12.1511V9.97949H23.1507V10.4858H20.2822V12.0948C20.2822 12.1286 20.2822 12.1511 20.2878 12.1623C20.2878 12.1736 20.2991 12.1848 20.3159 12.1961C20.3328 12.2073 20.3609 12.2073 20.4003 12.2073H23.1957V12.7193H23.2013Z" fill="#272726"></path></g><defs><clipPath id="clip0_1309_153"><rect width="24" height="24" fill="white" transform="translate(0 0.00463867)"></rect></clipPath></defs></svg>