<svg width="20" height="20" viewBox="0 0 20 20" fill="none" xmlns="http://www.w3.org/2000/svg">
<path d="M10 18.3334C8.52778 18.3334 7.32639 18.1008 6.39583 17.6355C5.46528 17.1702 5 16.5695 5 15.8334C5 15.3473 5.20139 14.9237 5.60417 14.5626C6.00694 14.2015 6.5625 13.9167 7.27083 13.7084L7.75 15.2917C7.51389 15.3612 7.29861 15.448 7.10417 15.5522C6.90972 15.6563 6.77778 15.7501 6.70833 15.8334C6.88889 16.0556 7.30556 16.2501 7.95833 16.4167C8.61111 16.5834 9.29167 16.6667 10 16.6667C10.7083 16.6667 11.3924 16.5834 12.0521 16.4167C12.7118 16.2501 13.1319 16.0556 13.3125 15.8334C13.2431 15.7501 13.1111 15.6563 12.9167 15.5522C12.7222 15.448 12.5069 15.3612 12.2708 15.2917L12.75 13.7084C13.4583 13.9167 14.0104 14.2015 14.4062 14.5626C14.8021 14.9237 15 15.3473 15 15.8334C15 16.5695 14.5347 17.1702 13.6042 17.6355C12.6736 18.1008 11.4722 18.3334 10 18.3334ZM10 15.8334C9.84722 15.8334 9.70833 15.7883 9.58333 15.698C9.45833 15.6077 9.36806 15.4862 9.3125 15.3334C8.99306 14.3473 8.59028 13.5209 8.10417 12.8542C7.61806 12.1876 7.14583 11.5487 6.6875 10.9376C6.24306 10.3265 5.85764 9.69453 5.53125 9.04175C5.20486 8.38897 5.04167 7.58341 5.04167 6.62508C5.04167 5.23619 5.52083 4.06258 6.47917 3.10425C7.4375 2.14591 8.61111 1.66675 10 1.66675C11.3889 1.66675 12.5625 2.14591 13.5208 3.10425C14.4792 4.06258 14.9583 5.23619 14.9583 6.62508C14.9583 7.58341 14.7986 8.38897 14.4792 9.04175C14.1597 9.69453 13.7708 10.3265 13.3125 10.9376C12.8681 11.5487 12.3993 12.1876 11.9062 12.8542C11.4132 13.5209 11.0069 14.3473 10.6875 15.3334C10.6319 15.4862 10.5417 15.6077 10.4167 15.698C10.2917 15.7883 10.1528 15.8334 10 15.8334ZM10 8.39591C10.4861 8.39591 10.9028 8.2223 11.25 7.87508C11.5972 7.52786 11.7708 7.11119 11.7708 6.62508C11.7708 6.13897 11.5972 5.7223 11.25 5.37508C10.9028 5.02786 10.4861 4.85425 10 4.85425C9.51389 4.85425 9.09722 5.02786 8.75 5.37508C8.40278 5.7223 8.22917 6.13897 8.22917 6.62508C8.22917 7.11119 8.40278 7.52786 8.75 7.87508C9.09722 8.2223 9.51389 8.39591 10 8.39591Z" fill="#161A3F"/>
</svg>
