<svg width="20" height="20" viewBox="0 0 20 20" fill="none" xmlns="http://www.w3.org/2000/svg">
<path d="M10.0006 16.939L9.08078 16.1121C7.69937 14.8589 6.55701 13.782 5.65369 12.8814C4.75039 11.9807 4.03458 11.1792 3.50628 10.4767C2.97796 9.77427 2.60883 9.13351 2.3989 8.55446C2.18896 7.9754 2.08398 7.3878 2.08398 6.79165C2.08398 5.60897 2.48276 4.61885 3.2803 3.82131C4.07784 3.02377 5.06795 2.625 6.25063 2.625C6.9782 2.625 7.6657 2.79515 8.31313 3.13544C8.96056 3.47572 9.52306 3.96369 10.0006 4.59938C10.4782 3.96369 11.0407 3.47572 11.6881 3.13544C12.3356 2.79515 13.0231 2.625 13.7506 2.625C14.9333 2.625 15.9234 3.02377 16.721 3.82131C17.5185 4.61885 17.9173 5.60897 17.9173 6.79165C17.9173 7.3878 17.8123 7.9754 17.6024 8.55446C17.3924 9.13351 17.0233 9.77427 16.495 10.4767C15.9667 11.1792 15.2522 11.9807 14.3516 12.8814C13.4509 13.782 12.3072 14.8589 10.9205 16.1121L10.0006 16.939Z" fill="#2D40FF"/>
</svg>
