<svg width="20" height="20" viewBox="0 0 20 20" fill="none" xmlns="http://www.w3.org/2000/svg">
<path d="M3.90527 10.1762L3.90526 10.1762C3.39515 9.49798 3.05586 8.90129 2.86835 8.38407L2.86835 8.38406C2.67755 7.8578 2.58337 7.32779 2.58337 6.79168C2.58337 5.73443 2.93442 4.87372 3.63324 4.1749C4.33206 3.47608 5.19278 3.12503 6.25002 3.12503C6.89609 3.12503 7.50381 3.27527 8.07989 3.57806L8.0799 3.57806C8.65621 3.88096 9.16325 4.31803 9.60027 4.89973L10 5.43184L10.3998 4.89973C10.8368 4.31803 11.3438 3.88096 11.9201 3.57806L11.9201 3.57806C12.4962 3.27527 13.1039 3.12503 13.75 3.12503C14.8073 3.12503 15.668 3.47608 16.3668 4.1749C17.0656 4.87372 17.4167 5.73443 17.4167 6.79168C17.4167 7.32779 17.3225 7.8578 17.1317 8.38406L17.1317 8.38407C16.9442 8.90129 16.6049 9.49798 16.0948 10.1762L16.4944 10.4768L16.0948 10.1762C15.5853 10.8537 14.8881 11.6371 13.9974 12.5279C13.1049 13.4204 11.968 14.4911 10.5851 15.7408C10.585 15.7409 10.5848 15.7411 10.5846 15.7412L10 16.2667L9.41612 15.7419C9.41585 15.7416 9.41559 15.7414 9.41533 15.7411C8.03771 14.4914 6.9018 13.4204 6.00611 12.5273C5.11281 11.6367 4.41456 10.8534 3.90527 10.1762Z" stroke="#161A3F"/>
</svg>

