<svg width="20" height="20" viewBox="0 0 20 20" fill="none" xmlns="http://www.w3.org/2000/svg">
<path d="M10 16.939L9.08017 16.1121C7.69876 14.8589 6.5564 13.782 5.65308 12.8814C4.74978 11.9807 4.03397 11.1792 3.50567 10.4767C2.97735 9.77427 2.60822 9.13351 2.39829 8.55446C2.18835 7.9754 2.08337 7.3878 2.08337 6.79165C2.08337 5.60897 2.48214 4.61885 3.27969 3.82131C4.07723 3.02377 5.06734 2.625 6.25002 2.625C6.97759 2.625 7.66509 2.79515 8.31252 3.13544C8.95995 3.47572 9.52245 3.96369 10 4.59938C10.4776 3.96369 11.0401 3.47572 11.6875 3.13544C12.335 2.79515 13.0225 2.625 13.75 2.625C14.9327 2.625 15.9228 3.02377 16.7204 3.82131C17.5179 4.61885 17.9167 5.60897 17.9167 6.79165C17.9167 7.3878 17.8117 7.9754 17.6018 8.55446C17.3918 9.13351 17.0227 9.77427 16.4944 10.4767C15.9661 11.1792 15.2516 11.9807 14.351 12.8814C13.4503 13.782 12.3066 14.8589 10.9199 16.1121L10 16.939Z" fill="#8D8FA2"/>
</svg>
