<svg width="19" height="19" viewBox="0 0 19 19" fill="none" xmlns="http://www.w3.org/2000/svg">
<path d="M7.25 11H14.75L12.1625 7.625L10.4375 9.875L9.275 8.375L7.25 11ZM6.5 14C6.0875 14 5.73438 13.8531 5.44063 13.5594C5.14688 13.2656 5 12.9125 5 12.5V3.5C5 3.0875 5.14688 2.73438 5.44063 2.44063C5.73438 2.14687 6.0875 2 6.5 2H15.5C15.9125 2 16.2656 2.14687 16.5594 2.44063C16.8531 2.73438 17 3.0875 17 3.5V12.5C17 12.9125 16.8531 13.2656 16.5594 13.5594C16.2656 13.8531 15.9125 14 15.5 14H6.5ZM3.5 17C3.0875 17 2.73438 16.8531 2.44063 16.5594C2.14687 16.2656 2 15.9125 2 15.5V5H3.5V15.5H14V17H3.5Z" fill="#161A3F"/>
</svg>
