<svg width="23" height="22" viewBox="0 0 23 22" fill="none" xmlns="http://www.w3.org/2000/svg">
<g clip-path="url(#clip0_94_107)">
<path fill-rule="evenodd" clip-rule="evenodd" d="M22.5 11.2497C22.5 10.4694 22.4281 9.72021 22.2959 9H11.7247V13.2549H17.7658C17.5057 14.6301 16.7148 15.7948 15.5262 16.5751V19.3347H19.1543C21.2755 17.4197 22.5 14.6 22.5 11.2497Z" fill="#4285F4"/>
<path fill-rule="evenodd" clip-rule="evenodd" d="M11.7247 21.9997C14.7553 21.9997 17.2963 21.0142 19.1532 19.3344L15.5251 16.5748C14.5195 17.2349 13.2347 17.6246 11.7236 17.6246C8.79983 17.6246 6.32543 15.6898 5.44247 13.0898H1.69385V15.9396C3.54119 19.5344 7.33634 21.9997 11.7247 21.9997Z" fill="#34A853"/>
<path fill-rule="evenodd" clip-rule="evenodd" d="M5.44352 13.0906C5.21935 12.4305 5.0914 11.7258 5.0914 11.0004C5.0914 10.2751 5.21935 9.57039 5.44352 8.91029V6.06055H1.69385C0.93355 7.54552 0.5 9.22531 0.5 11.0004C0.5 12.7756 0.93355 14.4554 1.69385 15.9403L5.44352 13.0906Z" fill="#FBBC05"/>
<path fill-rule="evenodd" clip-rule="evenodd" d="M11.7247 4.37513C13.3722 4.37513 14.8526 4.93057 16.0158 6.01969L19.2357 2.86425C17.2911 1.09016 14.75 0 11.7247 0C7.33634 0 3.54119 2.46529 1.69385 6.0601L5.44352 8.90985C6.32648 6.30985 8.80089 4.37513 11.7247 4.37513Z" fill="#EA4335"/>
</g>
<defs>
<clipPath id="clip0_94_107">
<rect width="22" height="22" fill="white" transform="translate(0.5)"/>
</clipPath>
</defs>
</svg>
