<svg width="20" height="13" viewBox="0 0 20 13" fill="none" xmlns="http://www.w3.org/2000/svg">
<path d="M18.3654 3.78632L20 1.98586H16.3751C14.5603 0.730893 12.3687 0 9.99848 0C7.63127 0 5.44575 0.732469 3.63402 1.98586H0L1.63463 3.78632C0.63268 4.71181 0.00455667 6.04493 0.00455667 7.52513C0.00455667 10.3185 2.2416 12.5832 5.0008 12.5832C6.31153 12.5832 7.5057 12.0714 8.39719 11.2348L9.99852 13L11.5998 11.2363C12.4913 12.073 13.684 12.5832 14.9947 12.5832C17.7539 12.5832 19.994 10.3185 19.994 7.52513C19.9954 6.04339 19.3674 4.71031 18.3654 3.78632ZM5.00228 10.9482C3.13454 10.9482 1.62104 9.416 1.62104 7.52513C1.62104 5.63425 3.13458 4.10197 5.00228 4.10197C6.86998 4.10197 8.38352 5.63425 8.38352 7.52513C8.38352 9.416 6.86998 10.9482 5.00228 10.9482ZM10 7.42552C10 5.17303 8.38204 3.23929 6.24641 2.41337C7.40124 1.92455 8.66808 1.65334 9.99848 1.65334C11.3289 1.65334 12.5972 1.92455 13.7521 2.41337C11.618 3.24083 10 5.17307 10 7.42552ZM14.9962 10.9482C13.1285 10.9482 11.615 9.416 11.615 7.52513C11.615 5.63425 13.1285 4.10197 14.9962 4.10197C16.864 4.10197 18.3775 5.63425 18.3775 7.52513C18.3775 9.416 16.8639 10.9482 14.9962 10.9482ZM14.9962 5.72924C14.017 5.72924 13.2239 6.53218 13.2239 7.52359C13.2239 8.51496 14.017 9.31789 14.9962 9.31789C15.9755 9.31789 16.7686 8.51496 16.7686 7.52359C16.7686 6.53371 15.9755 5.72924 14.9962 5.72924ZM6.77463 7.52513C6.77463 8.5165 5.98152 9.31943 5.00228 9.31943C4.02303 9.31943 3.22992 8.5165 3.22992 7.52513C3.22992 6.53371 4.02303 5.73078 5.00228 5.73078C5.98152 5.72924 6.77463 6.53371 6.77463 7.52513Z" fill="black"/>
</svg>
