<svg width="19" height="19" viewBox="0 0 19 19" fill="none" xmlns="http://www.w3.org/2000/svg">
<path d="M3.98877 14.75H3.23877L2.75127 13.25H1.73877V9.48125C1.73877 9.06875 1.88564 8.71875 2.17939 8.43125C2.47314 8.14375 2.82627 8 3.23877 8V5.75C3.23877 5.3375 3.38564 4.98438 3.67939 4.69063C3.97314 4.39687 4.32627 4.25 4.73877 4.25H13.7388C14.1513 4.25 14.5044 4.39687 14.7981 4.69063C15.0919 4.98438 15.2388 5.3375 15.2388 5.75V8C15.6513 8 16.0044 8.14688 16.2981 8.44063C16.5919 8.73438 16.7388 9.0875 16.7388 9.5V13.25H15.7263L15.2388 14.75H14.4888L14.0013 13.25H4.47627L3.98877 14.75ZM9.98877 8H13.7388V5.75H9.98877V8ZM4.73877 8H8.48877V5.75H4.73877V8Z" fill="#8D8FA2"/>
</svg>
