<svg width="23" height="22" viewBox="0 0 23 22" fill="none" xmlns="http://www.w3.org/2000/svg">
<g clip-path="url(#clip0_94_125)">
<path d="M22.5 0H0.5V22H22.5V0Z" fill="#FAE100"/>
<path d="M11.4776 4.0332C7.11276 4.0332 3.57613 6.82938 3.57613 10.2799C3.57613 12.5261 5.07526 14.494 7.32479 15.5939C7.15914 16.2101 6.72679 17.8286 6.639 18.1748C6.53133 18.6038 6.79637 18.5988 6.9703 18.4845C7.10613 18.3934 9.13535 17.0136 10.0116 16.4189C10.4871 16.4901 10.9774 16.5265 11.4793 16.5265C15.8425 16.5265 19.3808 13.7304 19.3808 10.2799C19.3808 6.82938 15.8425 4.0332 11.4776 4.0332Z" fill="#381E1F"/>
<path d="M5.96645 9.1308H6.77979C6.77979 9.1308 6.78476 11.3654 6.77979 11.8856C6.78145 12.2649 7.62627 12.2699 7.62461 11.8905L7.62792 9.15896C7.62792 9.15896 7.89959 9.16062 8.43795 9.16062C8.94319 9.16062 8.94319 8.36549 8.43795 8.36549C7.86812 8.36549 5.9648 8.35059 5.9648 8.35059C5.48772 8.35224 5.48938 9.1308 5.96645 9.1308Z" fill="#FAE100"/>
<mask id="mask0_94_125" style="mask-type:luminance" maskUnits="userSpaceOnUse" x="5" y="8" width="4" height="5">
<path d="M5.96645 9.1308H6.77979C6.77979 9.1308 6.78476 11.3654 6.77979 11.8856C6.78145 12.2649 7.62627 12.2699 7.62461 11.8905L7.62792 9.15896C7.62792 9.15896 7.89959 9.16062 8.43795 9.16062C8.94319 9.16062 8.94319 8.36549 8.43795 8.36549C7.86812 8.36549 5.9648 8.35059 5.9648 8.35059C5.48772 8.35224 5.48938 9.1308 5.96645 9.1308Z" fill="white"/>
</mask>
<g mask="url(#mask0_94_125)">
<path d="M8.94484 8.35059H5.48772V12.2699H8.94484V8.35059Z" fill="#FAE100"/>
</g>
<path d="M9.85923 9.27495L10.3115 10.6929H9.36891L9.85923 9.27495ZM9.35068 8.61069C9.15025 9.05132 8.42801 11.1335 8.18782 11.6852C8.01389 12.0844 8.76263 12.4091 8.93656 12.0115L9.0989 11.4417H10.5864C10.5864 11.4417 10.5351 11.4648 10.7322 11.9866C10.8929 12.4091 11.6648 12.1159 11.5041 11.6934C11.2755 11.0905 10.4854 8.9188 10.3413 8.61069C10.275 8.46823 10.0365 8.36719 9.80622 8.36719C9.61738 8.36719 9.4302 8.43676 9.35068 8.61069Z" fill="#FAE100"/>
<mask id="mask1_94_125" style="mask-type:luminance" maskUnits="userSpaceOnUse" x="8" y="8" width="4" height="5">
<path d="M9.85923 9.27495L10.3115 10.6929H9.36891L9.85923 9.27495ZM9.35068 8.61069C9.15025 9.05132 8.42801 11.1335 8.18782 11.6852C8.01389 12.0844 8.76263 12.4091 8.93656 12.0115L9.0989 11.4417H10.5864C10.5864 11.4417 10.5351 11.4648 10.7322 11.9866C10.8929 12.4091 11.6648 12.1159 11.5041 11.6934C11.2755 11.0905 10.4854 8.9188 10.3413 8.61069C10.275 8.46823 10.0365 8.36719 9.80622 8.36719C9.61738 8.36719 9.4302 8.43676 9.35068 8.61069Z" fill="white"/>
</mask>
<g mask="url(#mask1_94_125)">
<path d="M11.6681 8.36719H8.01555V12.4107H11.6681V8.36719Z" fill="#FAE100"/>
</g>
<path d="M11.7924 8.74187C11.794 9.4492 11.7957 11.7285 11.7957 11.7285C11.7957 11.7285 11.7311 12.1824 12.1187 12.1824C12.508 12.1824 13.3694 12.1775 13.752 12.1775C14.1347 12.1775 14.1313 11.3641 13.7504 11.3641C13.3677 11.3641 12.6703 11.3608 12.6703 11.3608C12.6703 11.3608 12.6736 9.25207 12.672 8.74021C12.672 8.49174 12.4517 8.36916 12.2313 8.36916C12.011 8.3675 11.7907 8.49339 11.7924 8.74187Z" fill="#FAE100"/>
<mask id="mask2_94_125" style="mask-type:luminance" maskUnits="userSpaceOnUse" x="11" y="8" width="4" height="5">
<path d="M11.7924 8.74187C11.794 9.4492 11.7957 11.7285 11.7957 11.7285C11.7957 11.7285 11.7311 12.1824 12.1187 12.1824C12.508 12.1824 13.3694 12.1775 13.752 12.1775C14.1347 12.1775 14.1313 11.3641 13.7504 11.3641C13.3677 11.3641 12.6703 11.3608 12.6703 11.3608C12.6703 11.3608 12.6736 9.25207 12.672 8.74021C12.672 8.49174 12.4517 8.36916 12.2313 8.36916C12.011 8.3675 11.7907 8.49339 11.7924 8.74187Z" fill="white"/>
</mask>
<g mask="url(#mask2_94_125)">
<path d="M14.1347 8.36719H11.7311V12.1805H14.1347V8.36719Z" fill="#FAE100"/>
</g>
<path d="M14.2357 8.62892C14.244 8.93868 14.2258 11.7448 14.2258 11.9519C14.2258 12.2798 15.0606 12.2798 15.0606 11.9519C15.0606 11.5709 15.0606 10.8486 15.0606 10.8486L15.3058 10.6515L16.3776 12.1142C16.5946 12.4008 17.277 11.8839 17.06 11.5974L15.922 10.0982C15.922 10.0982 16.6956 9.2617 16.9988 8.96022C17.176 8.78297 16.626 8.2297 16.4488 8.40695C16.2765 8.57757 15.0656 9.79012 15.0656 9.79012C15.0656 9.79012 15.0772 9.02979 15.0656 8.60904C15.0606 8.45001 14.8652 8.37216 14.6647 8.37216C14.4511 8.36885 14.2307 8.4583 14.2357 8.62892Z" fill="#FAE100"/>
<mask id="mask3_94_125" style="mask-type:luminance" maskUnits="userSpaceOnUse" x="14" y="8" width="4" height="5">
<path d="M14.2357 8.62892C14.244 8.93868 14.2258 11.7448 14.2258 11.9519C14.2258 12.2798 15.0606 12.2798 15.0606 11.9519C15.0606 11.5709 15.0606 10.8486 15.0606 10.8486L15.3058 10.6515L16.3776 12.1142C16.5946 12.4008 17.277 11.8839 17.06 11.5974L15.922 10.0982C15.922 10.0982 16.6956 9.2617 16.9988 8.96022C17.176 8.78297 16.626 8.2297 16.4488 8.40695C16.2765 8.57757 15.0656 9.79012 15.0656 9.79012C15.0656 9.79012 15.0772 9.02979 15.0656 8.60904C15.0606 8.45001 14.8652 8.37216 14.6647 8.37216C14.4511 8.36885 14.2307 8.4583 14.2357 8.62892Z" fill="white"/>
</mask>
<g mask="url(#mask3_94_125)">
<path d="M17.277 8.22852H14.2258V12.3996H17.277V8.22852Z" fill="#FAE100"/>
</g>
</g>
<defs>
<clipPath id="clip0_94_125">
<rect x="0.5" width="22" height="22" rx="2" fill="white"/>
</clipPath>
</defs>
</svg>
