<svg xmlns="http://www.w3.org/2000/svg" width="80" height="25" viewBox="0 0 80 25" fill="none">
  <g clip-path="url(#clip0_4896_2163)">
    <path d="M2.79591 24.0554H0V0.60666L2.79591 0V24.0554ZM10.2605 7.04253L12.4497 8.62512L7.06891 15.3511L13.2938 22.8157L11.1309 24.4774L3.79822 15.5094L10.2605 7.04253Z" fill="#371C1D"/>
    <path d="M15.7466 19.5977C15.7466 17.9096 16.3005 16.6435 17.4347 15.7731C18.5689 14.9026 20.1778 14.4542 22.3407 14.4542H25.5587V13.3992C25.5587 10.8406 24.4245 9.54819 22.1561 9.54819C21.4175 9.54819 20.6526 9.6537 19.8613 9.86471C19.07 10.0757 18.3315 10.3131 17.6721 10.6296L16.8544 8.65139C17.6721 8.17661 18.5689 7.83372 19.5448 7.56996C20.4944 7.30619 21.4439 7.20068 22.3407 7.20068C26.2708 7.20068 28.2227 9.28443 28.2227 13.4783V24.0817H26.1653L25.8224 22.2617C25.0047 22.9211 24.1079 23.4486 23.1584 23.8179C22.2088 24.1872 21.312 24.3718 20.468 24.3718C18.9909 24.3718 17.8303 23.9498 16.9863 23.1057C16.1686 22.2089 15.7466 21.0747 15.7466 19.5977ZM20.9955 22.077C21.3912 22.077 21.7868 22.0243 22.1825 21.9188C22.6045 21.8133 23.0001 21.6814 23.4222 21.5231C23.8442 21.3649 24.2134 21.1539 24.5827 20.9429C24.952 20.7055 25.2685 20.4681 25.5587 20.2043V16.3006H22.6572C21.1801 16.3006 20.1251 16.5643 19.4393 17.0655C18.7535 17.5667 18.437 18.358 18.437 19.4658C18.4106 21.2066 19.281 22.077 20.9955 22.077Z" fill="#371C1D"/>
    <path d="M35.9775 24.0554H33.1816V0.60666L35.9775 0V24.0554ZM43.4157 7.04253L45.605 8.62512L40.2505 15.3511L46.4754 22.8157L44.3125 24.4774L36.9799 15.5094L43.4157 7.04253Z" fill="#371C1D"/>
    <path d="M48.9282 19.5977C48.9282 17.9096 49.4821 16.6435 50.6163 15.7731C51.7505 14.9026 53.3595 14.4542 55.5224 14.4542H58.7403V13.3992C58.7403 10.8406 57.6061 9.54819 55.3377 9.54819C54.5992 9.54819 53.8343 9.6537 53.043 9.86471C52.2517 10.0757 51.5131 10.3131 50.8537 10.6296L50.036 8.65139C50.8537 8.17661 51.7505 7.83372 52.7264 7.56996C53.676 7.30619 54.6256 7.20068 55.5224 7.20068C59.4525 7.20068 61.4043 9.28443 61.4043 13.4783V24.0817H59.3469L59.0041 22.2617C58.1864 22.9211 57.2896 23.4486 56.34 23.8179C55.3905 24.1872 54.4937 24.3718 53.6496 24.3718C52.1725 24.3718 51.012 23.9498 50.1679 23.1057C49.3502 22.2089 48.9282 21.0747 48.9282 19.5977ZM54.1508 22.077C54.52 22.077 54.9421 22.0243 55.3377 21.9188C55.7597 21.8133 56.1554 21.6814 56.5774 21.5231C56.9994 21.3649 57.3687 21.1539 57.738 20.9429C58.1073 20.7055 58.4238 20.4681 58.7139 20.2043V16.3006H55.8125C54.3354 16.3006 53.2803 16.5643 52.5946 17.0655C51.9088 17.5667 51.5923 18.358 51.5923 19.4658C51.5923 21.2066 52.4627 22.077 54.1508 22.077Z" fill="#371C1D"/>
    <path d="M72.6144 7.17432C74.9092 7.17432 76.7292 7.91286 78.048 9.41632C79.3668 10.9198 80.0262 13.0563 80.0262 15.8522C80.0262 18.5954 79.3668 20.7055 78.0744 22.1826C76.7819 23.6596 74.9619 24.3982 72.6408 24.3982C70.346 24.3982 68.5261 23.6596 67.2072 22.1826C65.8884 20.7055 65.229 18.5954 65.229 15.8522C65.229 13.0563 65.8884 10.9198 67.2072 9.41632C68.5261 7.93924 70.3197 7.17432 72.6144 7.17432ZM72.6144 9.41632C71.1637 9.41632 70.0295 9.97023 69.2646 11.0517C68.4733 12.1331 68.104 13.7421 68.104 15.8522C68.104 17.9359 68.4997 19.5185 69.2646 20.5736C70.0295 21.6287 71.1637 22.1562 72.6144 22.1562C74.0915 22.1562 75.2257 21.6287 75.9906 20.5736C76.7555 19.5185 77.1512 17.9359 77.1512 15.8522C77.1512 13.7421 76.7555 12.1595 75.9906 11.0517C75.2257 9.97023 74.0915 9.41632 72.6144 9.41632Z" fill="#371C1D"/>
  </g>
  <defs>
    <clipPath id="clip0_4896_2163">
      <rect width="80" height="24.4774" fill="white"/>
    </clipPath>
  </defs>
</svg>