<svg xmlns="http://www.w3.org/2000/svg" width="18" height="18" viewBox="0 0 18 18" fill="none">
  <path d="M9 9C9.4125 9 9.76563 8.85312 10.0594 8.55937C10.3531 8.26562 10.5 7.9125 10.5 7.5C10.5 7.0875 10.3531 6.73437 10.0594 6.44062C9.76563 6.14687 9.4125 6 9 6C8.5875 6 8.23438 6.14687 7.94063 6.44062C7.64688 6.73437 7.5 7.0875 7.5 7.5C7.5 7.9125 7.64688 8.26562 7.94063 8.55937C8.23438 8.85312 8.5875 9 9 9ZM9 16.5C6.9875 14.7875 5.48438 13.1969 4.49063 11.7281C3.49688 10.2594 3 8.9 3 7.65C3 5.775 3.60312 4.28125 4.80938 3.16875C6.01563 2.05625 7.4125 1.5 9 1.5C10.5875 1.5 11.9844 2.05625 13.1906 3.16875C14.3969 4.28125 15 5.775 15 7.65C15 8.9 14.5031 10.2594 13.5094 11.7281C12.5156 13.1969 11.0125 14.7875 9 16.5Z" fill="#FF4F4F"/>
</svg>