<svg width="26" height="26" viewBox="0 0 26 26" fill="none" xmlns="http://www.w3.org/2000/svg">
<path d="M13 13.0001C13.5959 13.0001 14.1059 12.7879 14.5302 12.3636C14.9546 11.9393 15.1667 11.4292 15.1667 10.8334C15.1667 10.2376 14.9546 9.72751 14.5302 9.30321C14.1059 8.8789 13.5959 8.66675 13 8.66675C12.4042 8.66675 11.8941 8.8789 11.4698 9.30321C11.0455 9.72751 10.8334 10.2376 10.8334 10.8334C10.8334 11.4292 11.0455 11.9393 11.4698 12.3636C11.8941 12.7879 12.4042 13.0001 13 13.0001ZM13 23.8334C10.0931 21.3598 7.92192 19.0622 6.4865 16.9407C5.05108 14.8192 4.33337 12.8556 4.33337 11.0501C4.33337 8.34175 5.20455 6.18411 6.94692 4.57716C8.68928 2.97022 10.707 2.16675 13 2.16675C15.2931 2.16675 17.3108 2.97022 19.0532 4.57716C20.7955 6.18411 21.6667 8.34175 21.6667 11.0501C21.6667 12.8556 20.949 14.8192 19.5136 16.9407C18.0782 19.0622 15.907 21.3598 13 23.8334Z" fill="#A8ABBF"/>
</svg>
