<svg width="19" height="19" viewBox="0 0 19 19" fill="none" xmlns="http://www.w3.org/2000/svg">
<path d="M9.50002 9.49998C9.93544 9.49998 10.3082 9.34494 10.6182 9.03487C10.9283 8.72481 11.0834 8.35206 11.0834 7.91665C11.0834 7.48123 10.9283 7.10849 10.6182 6.79842C10.3082 6.48835 9.93544 6.33331 9.50002 6.33331C9.0646 6.33331 8.69186 6.48835 8.38179 6.79842C8.07172 7.10849 7.91669 7.48123 7.91669 7.91665C7.91669 8.35206 8.07172 8.72481 8.38179 9.03487C8.69186 9.34494 9.0646 9.49998 9.50002 9.49998ZM9.50002 17.4166C7.37571 15.609 5.78908 13.93 4.74012 12.3797C3.69117 10.8293 3.16669 9.39442 3.16669 8.07498C3.16669 6.09581 3.80332 4.51908 5.07658 3.34477C6.34985 2.17047 7.82433 1.58331 9.50002 1.58331C11.1757 1.58331 12.6502 2.17047 13.9235 3.34477C15.1967 4.51908 15.8334 6.09581 15.8334 8.07498C15.8334 9.39442 15.3089 10.8293 14.2599 12.3797C13.211 13.93 11.6243 15.609 9.50002 17.4166Z" fill="#8D8FA2"/>
</svg>
