<svg width="22" height="20" viewBox="0 0 22 20" fill="none" xmlns="http://www.w3.org/2000/svg">
    <path d="M10.6452 17.8918C9.07795 17.8918 7.79905 17.6708 6.80846 17.2288C5.81787 16.7868 5.32257 16.2161 5.32257 15.5168C5.32257 15.055 5.53695 14.6526 5.96572 14.3095C6.39448 13.9665 6.98588 13.696 7.73991 13.4981L8.24999 15.0022C7.99865 15.0682 7.76948 15.1507 7.56249 15.2496C7.3555 15.3486 7.21504 15.4376 7.14112 15.5168C7.33332 15.7279 7.77687 15.9126 8.47176 16.071C9.16666 16.2293 9.89112 16.3085 10.6452 16.3085C11.3992 16.3085 12.1273 16.2293 12.8296 16.071C13.5319 15.9126 13.9792 15.7279 14.1714 15.5168C14.0974 15.4376 13.957 15.3486 13.75 15.2496C13.543 15.1507 13.3138 15.0682 13.0625 15.0022L13.5726 13.4981C14.3266 13.696 14.9143 13.9665 15.3357 14.3095C15.757 14.6526 15.9677 15.055 15.9677 15.5168C15.9677 16.2161 15.4724 16.7868 14.4818 17.2288C13.4913 17.6708 12.2124 17.8918 10.6452 17.8918ZM10.6452 15.5168C10.4825 15.5168 10.3347 15.4739 10.2016 15.3882C10.0685 15.3024 9.97244 15.1869 9.9133 15.0418C9.57324 14.105 9.14448 13.3199 8.62701 12.6866C8.10953 12.0533 7.60684 11.4463 7.11894 10.8658C6.64582 10.2852 6.23554 9.68486 5.88809 9.06472C5.54065 8.44458 5.36693 7.67931 5.36693 6.76889C5.36693 5.44944 5.87701 4.33451 6.89717 3.4241C7.91733 2.51368 9.16666 2.05847 10.6452 2.05847C12.1236 2.05847 13.373 2.51368 14.3931 3.4241C15.4133 4.33451 15.9234 5.44944 15.9234 6.76889C15.9234 7.67931 15.7534 8.44458 15.4133 9.06472C15.0732 9.68486 14.6593 10.2852 14.1714 10.8658C13.6982 11.4463 13.1993 12.0533 12.6744 12.6866C12.1495 13.3199 11.7171 14.105 11.377 15.0418C11.3179 15.1869 11.2218 15.3024 11.0887 15.3882C10.9556 15.4739 10.8078 15.5168 10.6452 15.5168ZM10.6452 8.45118C11.1626 8.45118 11.6062 8.28625 11.9758 7.95639C12.3454 7.62653 12.5302 7.23069 12.5302 6.76889C12.5302 6.30708 12.3454 5.91125 11.9758 5.58139C11.6062 5.25153 11.1626 5.0866 10.6452 5.0866C10.1277 5.0866 9.68413 5.25153 9.31451 5.58139C8.94488 5.91125 8.76007 6.30708 8.76007 6.76889C8.76007 7.23069 8.94488 7.62653 9.31451 7.95639C9.68413 8.28625 10.1277 8.45118 10.6452 8.45118Z" fill="white"/>
    </svg>
    