<svg width="18" height="18" viewBox="0 0 18 18" fill="none" xmlns="http://www.w3.org/2000/svg">
<path d="M5.43764 16.3125V9.49324C4.82899 9.36151 4.31625 9.05358 3.89943 8.56944C3.48259 8.08532 3.27417 7.50768 3.27417 6.83653V1.6875H4.39915V6.83653H5.43764V1.6875H6.5626V6.83653H7.60109V1.6875H8.72607V6.83653C8.72607 7.50768 8.51765 8.08532 8.10081 8.56944C7.68399 9.05358 7.17125 9.36151 6.5626 9.49324V16.3125L5.43764 16.3125ZM12.6492 16.3125V10.3125H10.6011V5.24998C10.6011 4.31346 10.9018 3.5012 11.5032 2.81321C12.1047 2.12524 12.8616 1.75481 13.7741 1.70192V16.3125H12.6492Z" fill="#161A3F"/>
</svg>
