<svg width="22" height="22" viewBox="0 0 22 22" fill="none" xmlns="http://www.w3.org/2000/svg">
<g clip-path="url(#clip0_5006_5786)">
<path d="M5.13333 1.46667C3.11667 1.46667 1.46667 3.11667 1.46667 5.13333V16.8667C1.46667 18.8833 3.11667 20.5333 5.13333 20.5333H16.8667C18.8833 20.5333 20.5333 18.8833 20.5333 16.8667V8.8C20.5333 8.39667 20.8633 8.06667 21.2667 8.06667C21.67 8.06667 22 8.39667 22 8.8V16.8667C22 19.69 19.69 22 16.8667 22H5.13333C2.31 22 0 19.69 0 16.8667V5.13333C0 2.31 2.31 0 5.13333 0H13.2C13.6033 0 13.9333 0.33 13.9333 0.733333C13.9333 1.13667 13.6033 1.46667 13.2 1.46667H5.13333Z" fill="url(#paint0_linear_5006_5786)"/>
<path d="M15.4 3.30023C15.4 2.89689 15.73 2.56689 16.1334 2.56689H21.2667C21.67 2.56689 22 2.89689 22 3.30023C22 3.70356 21.67 4.03356 21.2667 4.03356H16.1334C15.73 4.03356 15.4 3.70356 15.4 3.30023Z" fill="url(#paint1_linear_5006_5786)"/>
<path fill-rule="evenodd" clip-rule="evenodd" d="M11 4.3999C9.38665 4.3999 8.06665 5.7199 8.06665 7.33324C8.06665 8.94657 9.38665 10.2666 11 10.2666C12.6133 10.2666 13.9333 8.94657 13.9333 7.33324C13.9333 5.7199 12.6133 4.3999 11 4.3999ZM9.53332 7.33324C9.53332 6.52657 10.1933 5.86657 11 5.86657C11.8067 5.86657 12.4667 6.52657 12.4667 7.33324C12.4667 8.1399 11.8067 8.7999 11 8.7999C10.1933 8.7999 9.53332 8.1399 9.53332 7.33324Z" fill="url(#paint2_linear_5006_5786)"/>
<path d="M5.1333 16.1333C5.1333 13.31 7.4433 11 10.2666 11H11.7333C14.5566 11 16.8666 13.31 16.8666 16.1333V16.8667C16.8666 17.27 16.5366 17.6 16.1333 17.6C15.73 17.6 15.4 17.27 15.4 16.8667V16.1333C15.4 14.1167 13.75 12.4667 11.7333 12.4667V14.6667C11.7333 15.07 11.4033 15.4 11 15.4C10.5966 15.4 10.2666 15.07 10.2666 14.6667V12.4667C8.24997 12.4667 6.59997 14.1167 6.59997 16.1333V16.8667C6.59997 17.27 6.26997 17.6 5.86663 17.6C5.4633 17.6 5.1333 17.27 5.1333 16.8667V16.1333Z" fill="url(#paint3_linear_5006_5786)"/>
</g>
<defs>
<linearGradient id="paint0_linear_5006_5786" x1="1.3636" y1="1.06755" x2="15.4803" y2="19.4009" gradientUnits="userSpaceOnUse">
<stop stop-color="#FA1228"/>
<stop offset="0.9012" stop-color="#5A00D1"/>
</linearGradient>
<linearGradient id="paint1_linear_5006_5786" x1="11.168" y1="-6.48163" x2="25.2847" y2="11.8517" gradientUnits="userSpaceOnUse">
<stop stop-color="#FA1228"/>
<stop offset="0.9012" stop-color="#5A00D1"/>
</linearGradient>
<linearGradient id="paint2_linear_5006_5786" x1="4.38433" y1="-1.25853" x2="18.501" y2="17.0748" gradientUnits="userSpaceOnUse">
<stop stop-color="#FA1228"/>
<stop offset="0.9012" stop-color="#5A00D1"/>
</linearGradient>
<linearGradient id="paint3_linear_5006_5786" x1="0.315264" y1="1.87473" x2="14.4319" y2="20.2081" gradientUnits="userSpaceOnUse">
<stop stop-color="#FA1228"/>
<stop offset="0.9012" stop-color="#5A00D1"/>
</linearGradient>
<clipPath id="clip0_5006_5786">
<rect width="22" height="22" fill="white"/>
</clipPath>
</defs>
</svg>
