<svg width="25" height="24" viewBox="0 0 25 24" fill="none" xmlns="http://www.w3.org/2000/svg">
<path d="M13.4999 13.75H14.9999V10.75H17.9999V9.25H14.9999V6.25H13.4999V9.25H10.4999V10.75H13.4999V13.75ZM8.55765 17.5C8.05252 17.5 7.62496 17.325 7.27498 16.975C6.92498 16.625 6.74998 16.1974 6.74998 15.6923V4.3077C6.74998 3.80257 6.92498 3.375 7.27498 3.025C7.62496 2.675 8.05252 2.5 8.55765 2.5H19.9422C20.4473 2.5 20.8749 2.675 21.2249 3.025C21.5749 3.375 21.7499 3.80257 21.7499 4.3077V15.6923C21.7499 16.1974 21.5749 16.625 21.2249 16.975C20.8749 17.325 20.4473 17.5 19.9422 17.5H8.55765ZM8.55765 16H19.9422C20.0191 16 20.0897 15.9679 20.1538 15.9038C20.2179 15.8397 20.2499 15.7692 20.2499 15.6923V4.3077C20.2499 4.23077 20.2179 4.16024 20.1538 4.09613C20.0897 4.03203 20.0191 3.99998 19.9422 3.99998H8.55765C8.48072 3.99998 8.4102 4.03203 8.3461 4.09613C8.28198 4.16024 8.24993 4.23077 8.24993 4.3077V15.6923C8.24993 15.7692 8.28198 15.8397 8.3461 15.9038C8.4102 15.9679 8.48072 16 8.55765 16ZM5.05768 20.9999C4.55256 20.9999 4.125 20.8249 3.775 20.4749C3.425 20.1249 3.25 19.6973 3.25 19.1922V6.3077H4.74998V19.1922C4.74998 19.2692 4.78203 19.3397 4.84613 19.4038C4.91024 19.4679 4.98076 19.5 5.05768 19.5H17.9422V20.9999H5.05768Z" fill="#2D40FF"/>
</svg>
