<svg width="23" height="23" viewBox="0 0 23 23" fill="none" xmlns="http://www.w3.org/2000/svg">
<g clip-path="url(#clip0_247_60)">
<path d="M18.5217 23H4.47829C2.01289 23 0 20.9871 0 18.5061V4.49389C0 2.01289 2.01289 0 4.47829 0H18.5217C21.0027 0 23 2.01289 23 4.49389V18.5217C23 20.9871 21.0027 23 18.5217 23Z" fill="#525252"/>
<path d="M16.4933 9.59637L15.089 14.2463H14.9954L12.4207 5.77344H9.44042L10.7199 9.59637L9.31559 14.2463H9.22197L6.64734 5.77344H3.68262L7.50555 17.2734H11.032L12.1555 13.8874L13.279 17.2734H16.7898L19.3332 9.59637H16.4933Z" fill="white"/>
</g>
<defs>
<clipPath id="clip0_247_60">
<rect width="23" height="23" fill="white"/>
</clipPath>
</defs>
</svg>
