<svg width="18" height="18" viewBox="0 0 18 18" fill="none" xmlns="http://www.w3.org/2000/svg">
<path d="M1.34863 14.481V12.8137C1.34863 12.4272 1.4484 12.0822 1.64792 11.7789C1.84743 11.4755 2.11388 11.2395 2.44727 11.0708C3.16003 10.7222 3.87675 10.4534 4.59741 10.2645C5.31808 10.0755 6.11015 9.98106 6.97361 9.98106C7.83708 9.98106 8.62914 10.0755 9.3498 10.2645C10.0705 10.4534 10.7872 10.7222 11.5 11.0708C11.8333 11.2395 12.0998 11.4755 12.2993 11.7789C12.4988 12.0822 12.5986 12.4272 12.5986 12.8137V14.481H1.34863ZM14.0986 14.481V12.7214C14.0986 12.2291 13.978 11.7599 13.737 11.3139C13.4959 10.8678 13.1539 10.4851 12.7111 10.1657C13.214 10.2407 13.6914 10.3568 14.1433 10.514C14.5952 10.6712 15.0265 10.857 15.437 11.0714C15.8245 11.2782 16.1238 11.5218 16.3349 11.8024C16.5459 12.083 16.6514 12.3893 16.6514 12.7214V14.481H14.0986ZM6.97361 8.76948C6.25175 8.76948 5.63379 8.51245 5.11973 7.9984C4.60566 7.48434 4.34863 6.86638 4.34863 6.14451C4.34863 5.42264 4.60566 4.80468 5.11973 4.29063C5.63379 3.77656 6.25175 3.51953 6.97361 3.51953C7.69548 3.51953 8.31344 3.77656 8.8275 4.29063C9.34155 4.80468 9.59858 5.42264 9.59858 6.14451C9.59858 6.86638 9.34155 7.48434 8.8275 7.9984C8.31344 8.51245 7.69548 8.76948 6.97361 8.76948ZM13.4495 6.14451C13.4495 6.86638 13.1925 7.48434 12.6784 7.9984C12.1644 8.51245 11.5464 8.76948 10.8245 8.76948C10.7399 8.76948 10.6322 8.75986 10.5015 8.74064C10.3707 8.72141 10.263 8.70026 10.1784 8.67719C10.4742 8.3216 10.7015 7.92712 10.8603 7.49374C11.0192 7.06037 11.0986 6.61033 11.0986 6.14361C11.0986 5.67691 11.0176 5.22866 10.8556 4.79884C10.6935 4.36904 10.4678 3.97338 10.1784 3.61184C10.2861 3.57338 10.3938 3.54838 10.5015 3.53684C10.6092 3.5253 10.7168 3.51953 10.8245 3.51953C11.5464 3.51953 12.1644 3.77656 12.6784 4.29063C13.1925 4.80468 13.4495 5.42264 13.4495 6.14451Z" fill="#161A3F"/>
</svg>
