<svg width="18" height="18" viewBox="0 0 18 18" fill="none" xmlns="http://www.w3.org/2000/svg">
<path d="M8.99998 8.76923C8.27812 8.76923 7.66016 8.51221 7.14609 7.99816C6.63203 7.48409 6.375 6.86613 6.375 6.14427C6.375 5.42239 6.63203 4.80443 7.14609 4.29038C7.66016 3.77632 8.27812 3.51929 8.99998 3.51929C9.72184 3.51929 10.3398 3.77632 10.8539 4.29038C11.3679 4.80443 11.625 5.42239 11.625 6.14427C11.625 6.86613 11.3679 7.48409 10.8539 7.99816C10.3398 8.51221 9.72184 8.76923 8.99998 8.76923ZM3.375 14.4808V12.8135C3.375 12.4462 3.47476 12.106 3.67429 11.7931C3.8738 11.4801 4.14038 11.2395 4.47403 11.0712C5.21538 10.7077 5.96322 10.4351 6.71754 10.2534C7.47187 10.0717 8.23268 9.98082 8.99998 9.98082C9.76728 9.98082 10.5281 10.0717 11.2824 10.2534C12.0367 10.4351 12.7846 10.7077 13.5259 11.0712C13.8596 11.2395 14.1262 11.4801 14.3257 11.7931C14.5252 12.106 14.625 12.4462 14.625 12.8135V14.4808H3.375Z" fill="#2D40FF"/>
</svg>
