<svg width="48" height="48" viewBox="0 0 48 48" fill="none" xmlns="http://www.w3.org/2000/svg">
<path fill-rule="evenodd" clip-rule="evenodd" d="M7.5 1.5C4.18629 1.5 1.5 4.18629 1.5 7.5V37.5C1.5 40.8137 4.18629 43.5 7.5 43.5H24.9206C22.0035 40.6321 20.25 36.7567 20.25 32.5565V26.7327C20.25 24.0156 22.0105 21.8745 24.2733 21H11.25C10.4215 21 9.75 20.3284 9.75 19.5C9.75 18.6716 10.4215 18 11.25 18H27.75C28.5784 18 29.25 18.6716 29.25 19.5C29.25 19.6003 29.2402 19.6985 29.2213 19.7933L33.0216 18.9179C33.9935 18.694 35.0065 18.694 35.9784 18.9179L37.5 19.2684V7.5C37.5 4.18629 34.8137 1.5 31.5 1.5H7.5ZM27.75 15C28.5784 15 29.25 14.3285 29.25 13.5C29.25 12.6715 28.5784 12 27.75 12H11.25C10.4215 12 9.75 12.6715 9.75 13.5C9.75 14.3285 10.4215 15 11.25 15H27.75ZM19.5 25.5C19.5 26.3284 18.8284 27 18 27H11.25C10.4215 27 9.75 26.3284 9.75 25.5C9.75 24.6716 10.4215 24 11.25 24H18C18.8284 24 19.5 24.6716 19.5 25.5ZM18 33C18.8284 33 19.5 32.3284 19.5 31.5C19.5 30.6716 18.8284 30 18 30H11.25C10.4215 30 9.75 30.6716 9.75 31.5C9.75 32.3284 10.4215 33 11.25 33H18Z" fill="#B5CBDC"/>
<path fill-rule="evenodd" clip-rule="evenodd" d="M33.5267 21.1105C34.1662 20.9632 34.8338 20.9632 35.4733 21.1105L43.3483 22.9245C45.1197 23.3326 46.5 24.847 46.5 26.7327V32.5565C46.5 37.6093 43.4975 42.1858 38.7961 44.5323L35.1698 46.3421C34.7481 46.5527 34.2519 46.5527 33.8302 46.3421L30.2039 44.5323C25.5025 42.1859 22.5 37.6093 22.5 32.5565V26.7327C22.5 24.847 23.8803 23.3326 25.6517 22.9245L33.5267 21.1105ZM34.5 27C35.3285 27 36 27.6715 36 28.5V31.5H39C39.8284 31.5 40.5 32.1715 40.5 33C40.5 33.8284 39.8284 34.5 39 34.5H36V37.5C36 38.3284 35.3285 39 34.5 39C33.6715 39 33 38.3284 33 37.5V34.5H30C29.1715 34.5 28.5 33.8284 28.5 33C28.5 32.1715 29.1715 31.5 30 31.5H33V28.5C33 27.6715 33.6715 27 34.5 27Z" fill="#B5CBDC"/>
</svg>
