<svg width="24" height="24" viewBox="0 0 24 24" fill="none" xmlns="http://www.w3.org/2000/svg">
<path d="M1.5 18.5V4.5H2.99995V14H11.25V6.5H18.9999C19.9624 6.5 20.7864 6.84271 21.4718 7.52812C22.1572 8.21354 22.4999 9.03749 22.4999 9.99998V18.5H20.9999V15.4999H2.99995V18.5H1.5ZM6.99882 12.5576C6.28804 12.5576 5.68426 12.3089 5.18747 11.8113C4.69069 11.3138 4.4423 10.7096 4.4423 9.99885C4.4423 9.28807 4.69107 8.68428 5.1886 8.1875C5.68615 7.69072 6.29031 7.44232 7.00107 7.44232C7.71186 7.44232 8.31564 7.69109 8.81242 8.18863C9.30921 8.68618 9.5576 9.29033 9.5576 10.0011C9.5576 10.7119 9.30883 11.3157 8.8113 11.8124C8.31375 12.3092 7.70959 12.5576 6.99882 12.5576Z" fill="#FF3838"/>
</svg>
