<svg width="24" height="24" viewBox="0 0 24 24" fill="none" xmlns="http://www.w3.org/2000/svg">
<path d="M12 14.1539C11.7936 14.1539 11.6138 14.0773 11.4606 13.9241C11.3074 13.7709 11.2308 13.5911 11.2308 13.3847C11.2308 13.1783 11.3074 12.9985 11.4606 12.8453C11.6138 12.692 11.7936 12.6154 12 12.6154C12.2064 12.6154 12.3862 12.692 12.5394 12.8453C12.6926 12.9985 12.7692 13.1783 12.7692 13.3847C12.7692 13.5911 12.6926 13.7709 12.5394 13.9241C12.3862 14.0773 12.2064 14.1539 12 14.1539ZM8 14.1539C7.79358 14.1539 7.61378 14.0773 7.46058 13.9241C7.30738 13.7709 7.23077 13.5911 7.23077 13.3847C7.23077 13.1783 7.30738 12.9985 7.46058 12.8453C7.61378 12.692 7.79358 12.6154 8 12.6154C8.20642 12.6154 8.38623 12.692 8.53943 12.8453C8.69263 12.9985 8.76923 13.1783 8.76923 13.3847C8.76923 13.5911 8.69263 13.7709 8.53943 13.9241C8.38623 14.0773 8.20642 14.1539 8 14.1539ZM16 14.1539C15.7936 14.1539 15.6138 14.0773 15.4606 13.9241C15.3074 13.7709 15.2308 13.5911 15.2308 13.3847C15.2308 13.1783 15.3074 12.9985 15.4606 12.8453C15.6138 12.692 15.7936 12.6154 16 12.6154C16.2064 12.6154 16.3862 12.692 16.5394 12.8453C16.6926 12.9985 16.7692 13.1783 16.7692 13.3847C16.7692 13.5911 16.6926 13.7709 16.5394 13.9241C16.3862 14.0773 16.2064 14.1539 16 14.1539ZM12 18.0001C11.7936 18.0001 11.6138 17.9235 11.4606 17.7703C11.3074 17.617 11.2308 17.4372 11.2308 17.2308C11.2308 17.0244 11.3074 16.8446 11.4606 16.6914C11.6138 16.5382 11.7936 16.4616 12 16.4616C12.2064 16.4616 12.3862 16.5382 12.5394 16.6914C12.6926 16.8446 12.7692 17.0244 12.7692 17.2308C12.7692 17.4372 12.6926 17.617 12.5394 17.7703C12.3862 17.9235 12.2064 18.0001 12 18.0001ZM8 18.0001C7.79358 18.0001 7.61378 17.9235 7.46058 17.7703C7.30738 17.617 7.23077 17.4372 7.23077 17.2308C7.23077 17.0244 7.30738 16.8446 7.46058 16.6914C7.61378 16.5382 7.79358 16.4616 8 16.4616C8.20642 16.4616 8.38623 16.5382 8.53943 16.6914C8.69263 16.8446 8.76923 17.0244 8.76923 17.2308C8.76923 17.4372 8.69263 17.617 8.53943 17.7703C8.38623 17.9235 8.20642 18.0001 8 18.0001ZM16 18.0001C15.7936 18.0001 15.6138 17.9235 15.4606 17.7703C15.3074 17.617 15.2308 17.4372 15.2308 17.2308C15.2308 17.0244 15.3074 16.8446 15.4606 16.6914C15.6138 16.5382 15.7936 16.4616 16 16.4616C16.2064 16.4616 16.3862 16.5382 16.5394 16.6914C16.6926 16.8446 16.7692 17.0244 16.7692 17.2308C16.7692 17.4372 16.6926 17.617 16.5394 17.7703C16.3862 17.9235 16.2064 18.0001 16 18.0001ZM5.61538 21.0001C5.15513 21.0001 4.77083 20.8459 4.4625 20.5376C4.15417 20.2292 4 19.8449 4 19.3847V6.61544C4 6.15519 4.15417 5.7709 4.4625 5.46256C4.77083 5.15423 5.15513 5.00006 5.61538 5.00006H7.3846V2.76929H8.46153V5.00006H15.6154V2.76929H16.6154V5.00006H18.3846C18.8449 5.00006 19.2292 5.15423 19.5375 5.46256C19.8458 5.7709 20 6.15519 20 6.61544V19.3847C20 19.8449 19.8458 20.2292 19.5375 20.5376C19.2292 20.8459 18.8449 21.0001 18.3846 21.0001H5.61538ZM5.61538 20.0001H18.3846C18.5385 20.0001 18.6795 19.936 18.8077 19.8078C18.9359 19.6795 19 19.5385 19 19.3847V10.6154H5V19.3847C5 19.5385 5.0641 19.6795 5.1923 19.8078C5.32052 19.936 5.46154 20.0001 5.61538 20.0001Z" fill="#FF3838"/>
</svg>
