<svg width="20" height="30" viewBox="0 0 31 45" fill="none" xmlns="http://www.w3.org/2000/svg">
<path d="M15.4996 1.1001C7.94321 1.1001 1.09961 7.56398 1.09961 15.5398C1.09961 27.3982 12.5782 26.2647 15.4996 44.3001C18.421 26.2647 29.8996 27.3982 29.8996 15.5398C29.8996 7.56398 23.0578 1.1001 15.4996 1.1001Z" fill="#F29900"/>
<path d="M15.0137 41.3443H15.9863C17.4622 35.1637 20.0176 32.3009 22.5751 29.4357C22.9578 29.0069 23.3406 28.5782 23.7198 28.1382C23.8852 27.9463 24.0492 27.7568 24.2119 27.5688L24.2366 27.5403C27.255 24.0533 29.8 21.1132 29.8 15.5397C29.8 7.62071 23.0046 1.2 15.5 1.2C7.9972 1.2 1.2 7.62072 1.2 15.5397C1.2 21.1132 3.74498 24.0533 6.76343 27.5403L6.78807 27.5688L6.78858 27.5694C6.95115 27.7572 7.11501 27.9465 7.28022 28.1382C7.65941 28.5782 8.04216 29.0069 8.42486 29.4357C10.9824 32.3009 13.5378 35.1637 15.0137 41.3443ZM1 15.5397C1 7.50723 7.88981 1 15.5 1C23.112 1 30 7.50724 30 15.5397C30 21.1821 27.4105 24.184 24.3993 27.6583C24.2245 27.86 24.0482 28.0634 23.8713 28.2688C23.5698 28.6185 23.2631 28.9664 22.9539 29.3172C21.6434 30.8037 20.2866 32.3428 19.0832 34.3032C17.6335 36.6647 16.4056 39.6323 15.669 43.8959H15.331C14.5944 39.6323 13.3665 36.6647 11.9168 34.3032C10.7134 32.3428 9.35656 30.8037 8.04613 29.3172C7.73687 28.9664 7.43019 28.6185 7.12873 28.2688C6.95213 28.0638 6.77615 27.8608 6.60171 27.6595L6.60068 27.6583C3.58953 24.184 1 21.1821 1 15.5397Z" fill="#F29900" stroke="#E88700"/>
<path d="M11.5006 24.7002V17.3802C10.8206 17.1935 10.2506 16.8202 9.79059 16.2602C9.33059 15.7002 9.10059 15.0469 9.10059 14.3002V8.7002H10.7006V14.3002H11.5006V8.7002H13.1006V14.3002H13.9006V8.7002H15.5006V14.3002C15.5006 15.0469 15.2706 15.7002 14.8106 16.2602C14.3506 16.8202 13.7806 17.1935 13.1006 17.3802V24.7002H11.5006ZM19.5006 24.7002V18.3002H17.1006V12.7002C17.1006 11.5935 17.4906 10.6502 18.2706 9.8702C19.0506 9.0902 19.9939 8.7002 21.1006 8.7002V24.7002H19.5006Z" fill="white"/>
</svg>
