<svg width="26" height="26" viewBox="0 0 26 26" fill="none" xmlns="http://www.w3.org/2000/svg">
<path d="M8.66667 18.4167C8.97361 18.4167 9.2309 18.3128 9.43854 18.1052C9.64618 17.8976 9.75 17.6403 9.75 17.3333C9.75 17.0264 9.64618 16.7691 9.43854 16.5615C9.2309 16.3538 8.97361 16.25 8.66667 16.25C8.35972 16.25 8.10243 16.3538 7.89479 16.5615C7.68715 16.7691 7.58333 17.0264 7.58333 17.3333C7.58333 17.6403 7.68715 17.8976 7.89479 18.1052C8.10243 18.3128 8.35972 18.4167 8.66667 18.4167ZM8.66667 14.0833C8.97361 14.0833 9.2309 13.9795 9.43854 13.7719C9.64618 13.5642 9.75 13.3069 9.75 13C9.75 12.6931 9.64618 12.4358 9.43854 12.2281C9.2309 12.0205 8.97361 11.9167 8.66667 11.9167C8.35972 11.9167 8.10243 12.0205 7.89479 12.2281C7.68715 12.4358 7.58333 12.6931 7.58333 13C7.58333 13.3069 7.68715 13.5642 7.89479 13.7719C8.10243 13.9795 8.35972 14.0833 8.66667 14.0833ZM8.66667 9.75C8.97361 9.75 9.2309 9.64618 9.43854 9.43854C9.64618 9.2309 9.75 8.97361 9.75 8.66667C9.75 8.35972 9.64618 8.10243 9.43854 7.89479C9.2309 7.68715 8.97361 7.58333 8.66667 7.58333C8.35972 7.58333 8.10243 7.68715 7.89479 7.89479C7.68715 8.10243 7.58333 8.35972 7.58333 8.66667C7.58333 8.97361 7.68715 9.2309 7.89479 9.43854C8.10243 9.64618 8.35972 9.75 8.66667 9.75ZM11.9167 18.4167H18.4167V16.25H11.9167V18.4167ZM11.9167 14.0833H18.4167V11.9167H11.9167V14.0833ZM11.9167 9.75H18.4167V7.58333H11.9167V9.75ZM5.41667 22.75C4.82083 22.75 4.31076 22.5378 3.88646 22.1135C3.46215 21.6892 3.25 21.1792 3.25 20.5833V5.41667C3.25 4.82083 3.46215 4.31076 3.88646 3.88646C4.31076 3.46215 4.82083 3.25 5.41667 3.25H20.5833C21.1792 3.25 21.6892 3.46215 22.1135 3.88646C22.5378 4.31076 22.75 4.82083 22.75 5.41667V20.5833C22.75 21.1792 22.5378 21.6892 22.1135 22.1135C21.6892 22.5378 21.1792 22.75 20.5833 22.75H5.41667Z" fill="#A8ABBF"/>
</svg>
