<svg width="21" height="20" viewBox="0 0 21 20" fill="none" xmlns="http://www.w3.org/2000/svg">
<g clip-path="url(#clip0_50_3831)">
<path d="M16.75 8.125C16.75 9.91797 16.168 11.5742 15.1875 12.918L20.1328 17.8672C20.6211 18.3555 20.6211 19.1484 20.1328 19.6367C19.6445 20.125 18.8516 20.125 18.3633 19.6367L13.418 14.6875C12.0742 15.6719 10.418 16.25 8.625 16.25C4.13672 16.25 0.5 12.6133 0.5 8.125C0.5 3.63672 4.13672 0 8.625 0C13.1133 0 16.75 3.63672 16.75 8.125ZM8.625 13.75C9.36368 13.75 10.0951 13.6045 10.7776 13.3218C11.46 13.0391 12.0801 12.6248 12.6025 12.1025C13.1248 11.5801 13.5391 10.9601 13.8218 10.2776C14.1045 9.59514 14.25 8.86369 14.25 8.125C14.25 7.38632 14.1045 6.65486 13.8218 5.97241C13.5391 5.28995 13.1248 4.66985 12.6025 4.14752C12.0801 3.6252 11.46 3.21086 10.7776 2.92818C10.0951 2.6455 9.36368 2.5 8.625 2.5C7.88631 2.5 7.15486 2.6455 6.4724 2.92818C5.78995 3.21086 5.16985 3.6252 4.64752 4.14752C4.12519 4.66985 3.71086 5.28995 3.42818 5.97241C3.14549 6.65486 3 7.38632 3 8.125C3 8.86369 3.14549 9.59514 3.42818 10.2776C3.71086 10.9601 4.12519 11.5801 4.64752 12.1025C5.16985 12.6248 5.78995 13.0391 6.4724 13.3218C7.15486 13.6045 7.88631 13.75 8.625 13.75Z" fill="#161A3F"/>
</g>
<defs>
<clipPath id="clip0_50_3831">
<rect width="20" height="20" fill="white" transform="translate(0.5)"/>
</clipPath>
</defs>
</svg>
