<svg width="16" height="18" viewBox="0 0 16 18" fill="none" xmlns="http://www.w3.org/2000/svg">
<path d="M13.001 17.125C12.3647 17.125 11.8235 16.9022 11.3774 16.4566C10.9314 16.011 10.7084 15.4699 10.7084 14.8333C10.7084 14.7293 10.7167 14.6215 10.7332 14.5101C10.7498 14.3986 10.7746 14.2959 10.8077 14.2019L4.64425 10.5929C4.42417 10.8119 4.17363 10.9831 3.89265 11.1065C3.61166 11.2299 3.31412 11.2916 3.00002 11.2916C2.36345 11.2916 1.82237 11.0689 1.37677 10.6235C0.931173 10.1781 0.708374 9.63722 0.708374 9.00092C0.708374 8.36461 0.931173 7.82344 1.37677 7.3774C1.82237 6.93135 2.36345 6.70833 3.00002 6.70833C3.31412 6.70833 3.61166 6.77003 3.89265 6.89342C4.17363 7.01682 4.42417 7.18803 4.64425 7.40704L10.8077 3.79806C10.7746 3.70405 10.7498 3.60131 10.7332 3.48985C10.7167 3.37841 10.7084 3.27067 10.7084 3.16665C10.7084 2.53008 10.9311 1.98899 11.3765 1.5434C11.8219 1.0978 12.3628 0.875 12.9991 0.875C13.6354 0.875 14.1766 1.09771 14.6226 1.54313C15.0686 1.98854 15.2917 2.5294 15.2917 3.16571C15.2917 3.80201 15.0689 4.34319 14.6233 4.78923C14.1777 5.23527 13.6366 5.45829 13 5.45829C12.6859 5.45829 12.3884 5.3966 12.1074 5.27321C11.8264 5.14981 11.5759 4.9786 11.3558 4.75958L5.19231 8.36856C5.22544 8.46258 5.25028 8.56513 5.26683 8.67621C5.28339 8.78728 5.29167 8.89465 5.29167 8.99831C5.29167 9.10199 5.28339 9.20992 5.26683 9.3221C5.25028 9.43429 5.22544 9.53738 5.19231 9.6314L11.3558 13.2404C11.5759 13.0214 11.8264 12.8502 12.1074 12.7268C12.3884 12.6034 12.6859 12.5417 13 12.5417C13.6366 12.5417 14.1777 12.7644 14.6233 13.2098C15.0689 13.6552 15.2917 14.1961 15.2917 14.8324C15.2917 15.4687 15.069 16.0099 14.6235 16.4559C14.1781 16.9019 13.6373 17.125 13.001 17.125Z" fill="#8D8FA2"/>
</svg>
