<svg width="20" height="30" viewBox="0 0 31 45" fill="none" xmlns="http://www.w3.org/2000/svg">
<path d="M15.4996 1.1001C7.94321 1.1001 1.09961 7.56398 1.09961 15.5398C1.09961 27.3982 12.5782 26.2647 15.4996 44.3001C18.421 26.2647 29.8996 27.3982 29.8996 15.5398C29.8996 7.56398 23.0578 1.1001 15.4996 1.1001Z" fill="#5491F5"/>
<path d="M15.0137 41.3443H15.9863C17.4622 35.1637 20.0176 32.3009 22.5751 29.4357C22.9578 29.0069 23.3406 28.5782 23.7198 28.1382C23.8852 27.9463 24.0492 27.7568 24.2119 27.5688L24.2366 27.5403C27.255 24.0533 29.8 21.1132 29.8 15.5397C29.8 7.62071 23.0046 1.2 15.5 1.2C7.9972 1.2 1.2 7.62072 1.2 15.5397C1.2 21.1132 3.74498 24.0533 6.76343 27.5403L6.78807 27.5688L6.78858 27.5694C6.95115 27.7572 7.11501 27.9465 7.28022 28.1382C7.65941 28.5782 8.04216 29.0069 8.42486 29.4357C10.9824 32.3009 13.5378 35.1637 15.0137 41.3443ZM1 15.5397C1 7.50723 7.88981 1 15.5 1C23.112 1 30 7.50724 30 15.5397C30 21.1821 27.4105 24.184 24.3993 27.6583C24.2245 27.86 24.0482 28.0634 23.8713 28.2688C23.5698 28.6185 23.2631 28.9664 22.9539 29.3172C21.6434 30.8037 20.2866 32.3428 19.0832 34.3032C17.6335 36.6647 16.4056 39.6323 15.669 43.8959H15.331C14.5944 39.6323 13.3665 36.6647 11.9168 34.3032C10.7134 32.3428 9.35656 30.8037 8.04613 29.3172C7.73687 28.9664 7.43019 28.6185 7.12873 28.2688C6.95213 28.0638 6.77615 27.8608 6.60171 27.6595L6.60068 27.6583C3.58953 24.184 1 21.1821 1 15.5397Z" fill="#5491F5" stroke="#4386F4"/>
<path d="M22.72 15.94V22.3C22.72 22.74 22.5633 23.1167 22.25 23.43C21.9366 23.7433 21.56 23.9 21.12 23.9H9.91997C9.47997 23.9 9.10331 23.7433 8.78997 23.43C8.47664 23.1167 8.31997 22.74 8.31997 22.3V15.94C8.01331 15.66 7.77664 15.3 7.60997 14.86C7.44331 14.42 7.43997 13.94 7.59997 13.42L8.43997 10.7C8.54664 10.3533 8.73664 10.0667 9.00997 9.84C9.28331 9.61333 9.59997 9.5 9.95997 9.5H21.08C21.44 9.5 21.7533 9.61 22.02 9.83C22.2866 10.05 22.48 10.34 22.6 10.7L23.44 13.42C23.6 13.94 23.5966 14.4133 23.43 14.84C23.2633 15.2667 23.0266 15.6333 22.72 15.94ZM17.28 15.1C17.64 15.1 17.9133 14.9767 18.1 14.73C18.2866 14.4833 18.36 14.2067 18.32 13.9L17.88 11.1H16.32V14.06C16.32 14.34 16.4133 14.5833 16.6 14.79C16.7866 14.9967 17.0133 15.1 17.28 15.1ZM13.68 15.1C13.9866 15.1 14.2366 14.9967 14.43 14.79C14.6233 14.5833 14.72 14.34 14.72 14.06V11.1H13.16L12.72 13.9C12.6666 14.22 12.7366 14.5 12.93 14.74C13.1233 14.98 13.3733 15.1 13.68 15.1ZM10.12 15.1C10.36 15.1 10.57 15.0133 10.75 14.84C10.93 14.6667 11.04 14.4467 11.08 14.18L11.52 11.1H9.95997L9.15997 13.78C9.07997 14.0467 9.12331 14.3333 9.28997 14.64C9.45664 14.9467 9.73331 15.1 10.12 15.1ZM20.92 15.1C21.3066 15.1 21.5866 14.9467 21.76 14.64C21.9333 14.3333 21.9733 14.0467 21.88 13.78L21.04 11.1H19.52L19.96 14.18C20 14.4467 20.11 14.6667 20.29 14.84C20.47 15.0133 20.68 15.1 20.92 15.1Z" fill="white"/>
</svg>
