<svg xmlns="http://www.w3.org/2000/svg" width="42" height="42" viewBox="0 0 42 42" fill="none">
  <rect x="0.25" y="0.25" width="41.5" height="41.5" rx="9.75" stroke="#D9D9D9" stroke-width="0.5"/>
  <path d="M18.1571 12.3295H10.1806C9.0435 12.3295 8.12061 11.4055 8.12061 10.2671C8.12061 9.12857 9.0435 8.20459 10.1806 8.20459H18.1571C19.2942 8.20459 20.2171 9.12857 20.2171 10.2671C20.2171 10.8115 20.0029 11.3395 19.6238 11.719C19.2283 12.115 18.7009 12.3295 18.1571 12.3295ZM10.1806 9.42557C9.71919 9.42557 9.32367 9.80506 9.32367 10.2836C9.32367 10.762 9.70271 11.1415 10.1806 11.1415H18.1571C18.3878 11.1415 18.6021 11.059 18.7504 10.894C18.9152 10.729 18.9976 10.5145 18.9976 10.3001C18.9976 9.82156 18.6185 9.44207 18.1406 9.44207H10.1806V9.42557Z" fill="black"/>
  <path d="M31.3083 22.4932C31.2424 22.4932 31.16 22.4767 31.0941 22.4602L28.3254 21.4372L25.5567 22.4602C25.3754 22.5262 25.1612 22.4932 25.0129 22.3942C24.8481 22.2787 24.7492 22.0972 24.7492 21.8992V19.0613C24.7492 18.8468 24.8645 18.6323 25.0623 18.5333L26.0346 18.0053V15.7943L22.3925 16.6688C22.2112 16.7183 22.0299 16.6688 21.8816 16.5533C21.7333 16.4378 21.6509 16.2728 21.6509 16.0748V14.1939C21.6509 13.9959 21.7498 13.7979 21.931 13.6824L26.0346 11.0259V9.29346C26.0346 8.02298 27.0564 7 28.3254 7C29.5944 7 30.6162 8.02298 30.6162 9.29346V11.0424L34.7197 13.6989C34.8845 13.8144 34.9999 13.9959 34.9999 14.2104V16.0748C34.9999 16.2563 34.9175 16.4378 34.7692 16.5533C34.6209 16.6688 34.4396 16.7018 34.2583 16.6688L30.6162 15.7943V18.0053L31.5885 18.5333C31.7863 18.6323 31.9016 18.8468 31.9016 19.0613V21.8827C31.9016 22.0807 31.8027 22.2622 31.6379 22.3777C31.5555 22.4437 31.4237 22.4932 31.3083 22.4932ZM25.9522 19.4243V21.0247L28.1276 20.2328C28.2595 20.1833 28.4078 20.1833 28.5396 20.2328L30.715 21.0247V19.4243L29.7427 18.8963C29.5449 18.7973 29.4296 18.5828 29.4296 18.3683V15.0354C29.4296 14.8539 29.512 14.6724 29.6603 14.5569C29.8086 14.4414 29.9899 14.4084 30.1712 14.4414L33.8133 15.3159V14.5239L29.7097 11.8674C29.5449 11.7519 29.4296 11.5704 29.4296 11.3559V9.29346C29.4296 8.69947 28.9352 8.20448 28.3419 8.20448C27.7486 8.20448 27.2542 8.69947 27.2542 9.29346V11.3724C27.2542 11.5704 27.1553 11.7684 26.974 11.8839L22.8539 14.5239V15.3159L26.4961 14.4414C26.6774 14.3919 26.8586 14.4414 27.007 14.5569C27.1553 14.6724 27.2377 14.8374 27.2377 15.0354V18.3683C27.2377 18.5828 27.1223 18.7973 26.9246 18.8963L25.9522 19.4243Z" fill="black"/>
  <path d="M19.113 33.9612H8.87875C7.84049 33.9612 7 33.1197 7 32.0802V17.1315C7 16.092 7.84049 15.2505 8.87875 15.2505H19.113C20.1513 15.2505 20.9918 16.092 20.9918 17.1315V32.0967C20.9918 32.5917 20.794 33.0702 20.4479 33.4167C20.0853 33.7797 19.6074 33.9612 19.113 33.9612ZM8.87875 16.455C8.51619 16.455 8.20306 16.752 8.20306 17.1315V32.0967C8.20306 32.4597 8.49971 32.7732 8.87875 32.7732H19.113C19.2943 32.7732 19.4591 32.7072 19.5909 32.5752C19.7228 32.4432 19.7887 32.2782 19.7887 32.0967V17.1315C19.7887 16.7685 19.4921 16.455 19.113 16.455H8.87875Z" fill="black"/>
  <path d="M9.78506 34.9999C9.45546 34.9999 9.17529 34.7359 9.17529 34.3894V33.5314C9.17529 33.2014 9.43898 32.9209 9.78506 32.9209C10.1311 32.9209 10.3948 33.1849 10.3948 33.5314V34.3894C10.3948 34.7359 10.1147 34.9999 9.78506 34.9999Z" fill="black"/>
  <path d="M18.1898 34.9999C17.8602 34.9999 17.5801 34.7359 17.5801 34.3894V33.5314C17.5801 33.2014 17.8438 32.9209 18.1898 32.9209C18.5195 32.9209 18.7996 33.1849 18.7996 33.5314V34.3894C18.7996 34.7359 18.5359 34.9999 18.1898 34.9999Z" fill="black"/>
  <path d="M17.119 16.0753C16.7894 16.0753 16.5093 15.8113 16.5093 15.4648V12.1154C16.5093 11.7854 16.773 11.5049 17.119 11.5049C17.4487 11.5049 17.7288 11.7689 17.7288 12.1154V15.4813C17.7123 15.8113 17.4487 16.0753 17.119 16.0753Z" fill="black"/>
  <path d="M10.8564 16.0753C10.5267 16.0753 10.2466 15.8113 10.2466 15.4648V12.1154C10.2466 11.7854 10.5103 11.5049 10.8564 11.5049C11.2024 11.5049 11.4661 11.7689 11.4661 12.1154V15.4813C11.4661 15.8113 11.2024 16.0753 10.8564 16.0753Z" fill="black"/>
  <path d="M10.9882 30.0668C10.6586 30.0668 10.3784 29.8029 10.3784 29.4564V19.7545C10.3784 19.4245 10.6421 19.144 10.9882 19.144C11.3343 19.144 11.598 19.408 11.598 19.7545V29.4564C11.5815 29.7864 11.3178 30.0668 10.9882 30.0668Z" fill="#33CCCC"/>
  <path d="M13.9877 30.0668C13.6581 30.0668 13.3779 29.8029 13.3779 29.4564V19.7545C13.3779 19.4245 13.6416 19.144 13.9877 19.144C14.3173 19.144 14.5975 19.408 14.5975 19.7545V29.4564C14.5975 29.7864 14.3173 30.0668 13.9877 30.0668Z" fill="#33CCCC"/>
  <path d="M17.0033 30.0668C16.6737 30.0668 16.3936 29.8029 16.3936 29.4564V19.7545C16.3936 19.4245 16.6572 19.144 17.0033 19.144C17.3329 19.144 17.6131 19.408 17.6131 19.7545V29.4564C17.5966 29.7864 17.3329 30.0668 17.0033 30.0668Z" fill="#33CCCC"/>
  <path d="M30.9953 30.1657H22.7387C22.4091 30.1657 22.1289 29.9017 22.1289 29.5552C22.1289 29.2252 22.3926 28.9447 22.7387 28.9447H30.9953C31.4897 28.9447 31.9017 28.5322 31.9017 28.0372C31.9017 27.5422 31.4897 27.1297 30.9953 27.1297H29.8252C28.6716 27.1297 27.7157 26.1893 27.7157 25.0178V23.7638C27.7157 23.4338 27.9794 23.1533 28.3255 23.1533C28.6716 23.1533 28.9353 23.4173 28.9353 23.7638V25.0178C28.9353 25.5128 29.3473 25.9253 29.8417 25.9253H31.0118C32.1654 25.9253 33.1213 26.8658 33.1213 28.0372C33.1048 29.2252 32.1654 30.1657 30.9953 30.1657Z" fill="black"/>
</svg>