<svg width="270" height="17" viewBox="0 0 270 17" fill="none" xmlns="http://www.w3.org/2000/svg">
<g clip-path="url(#clip0_1044_384)">
<path d="M13.9782 16.7041H6.02469C4.11172 16.7041 2.60356 15.8645 1.49228 14.1933C0.500073 12.69 0 10.8429 0 8.63591C0 6.39697 0.508011 4.49386 1.5161 2.9186C2.63531 1.17542 4.13553 0.303833 6.01676 0.303833H13.9703V3.7662H6.62002C5.731 3.7662 5.03249 4.23798 4.52447 5.18953C4.07203 6.03713 3.84183 7.09264 3.84183 8.34005C3.84183 9.62745 4.07996 10.7229 4.54829 11.6345C5.06424 12.634 5.75481 13.1378 6.61208 13.1378H13.9703V16.7041H13.9782Z" fill="#FF3838"/>
<path d="M29.1707 10.8269C29.1707 12.722 28.4404 14.2333 26.9878 15.3608C25.6702 16.3763 24.0668 16.8881 22.1617 16.8881C20.3122 16.8881 18.7564 16.3843 17.4944 15.3848C16.0815 14.2653 15.375 12.746 15.375 10.8269V0.31189H18.9073V10.2352C18.9073 11.0908 19.2724 11.7785 20.0027 12.2982C20.6694 12.77 21.4711 13.0099 22.4157 13.0099C23.3206 13.0099 24.0826 12.778 24.7097 12.3222C25.4003 11.8105 25.7495 11.1148 25.7495 10.2272V0.31189H29.1707V10.8269Z" fill="#FF3838"/>
<path d="M44.3958 16.7042H37.9027C35.8469 16.7042 34.2276 16.1844 33.0211 15.1449C32.0765 14.3293 31.4097 13.2258 31.0208 11.8185C30.7668 10.8989 30.6318 9.89938 30.6318 8.81189C30.6318 8.56401 30.6318 8.38809 30.6398 8.28414C30.6477 8.18019 30.6556 8.09223 30.6715 8.01227V0.31189H34.2673V8.01227C34.2673 9.39562 34.553 10.5631 35.1325 11.5146C35.7993 12.6021 36.72 13.1538 37.8948 13.1538H44.3878V16.7042H44.3958Z" fill="#FF3838"/>
<path d="M54.2306 3.77426H50.5554V16.7042H46.9914V3.77426H43.3242V0.31189H54.2226V3.77426H54.2306Z" fill="#FF3838"/>
<path d="M69.0105 10.8269C69.0105 12.722 68.2803 14.2333 66.8277 15.3608C65.51 16.3763 63.9066 16.8881 62.0016 16.8881C60.1521 16.8881 58.5963 16.3843 57.3342 15.3848C55.9213 14.2653 55.2148 12.746 55.2148 10.8269V0.31189H58.7471V10.2352C58.7471 11.0908 59.1122 11.7785 59.8425 12.2982C60.5093 12.77 61.311 13.0099 62.2556 13.0099C63.1605 13.0099 63.9225 12.778 64.5496 12.3222C65.2401 11.8105 65.5894 11.1148 65.5894 10.2272V0.31189H69.0105V10.8269Z" fill="#FF3838"/>
<path d="M84.4256 16.7042L74.178 12.6181V16.6962H70.6299V11.2587C70.6299 9.95535 70.9474 8.89185 71.5903 8.09223C72.3365 7.14867 73.4319 6.68489 74.8845 6.68489H79.2978C79.7026 6.68489 80.0201 6.54096 80.2424 6.26109C80.4647 5.98122 80.5758 5.64538 80.5758 5.26156C80.5758 4.85375 80.4726 4.50991 80.2583 4.23005C80.0202 3.91819 79.6947 3.76626 79.2978 3.76626H70.6299V0.31189H79.8931C81.2822 0.31189 82.3776 0.823649 83.1873 1.85516C83.9176 2.78273 84.2827 3.92619 84.2827 5.27755C84.2827 6.62092 83.9176 7.75639 83.1873 8.68395C82.3776 9.72346 81.2822 10.2352 79.8931 10.2352H77.6547L84.4256 12.842V16.7042Z" fill="#FF3838"/>
<path d="M99.562 16.7042H90.2987C88.9096 16.7042 87.8142 16.1844 87.0046 15.1369C86.2743 14.2014 85.9092 13.0419 85.9092 11.6745C85.9092 10.4431 86.2187 9.37163 86.8299 8.46805C86.2187 7.56448 85.9092 6.50897 85.9092 5.29354C85.9092 3.95018 86.2743 2.81471 87.0046 1.87915C87.8142 0.83964 88.9096 0.327881 90.2987 0.327881H99.562V3.79025H90.902C90.513 3.79025 90.2035 3.94218 89.9733 4.23804C89.7431 4.5339 89.6319 4.88574 89.6319 5.28555C89.6319 5.67736 89.7431 6.01321 89.9574 6.28508C90.1717 6.56495 90.4892 6.70088 90.894 6.70088H99.554V10.1473V10.2432H90.4098C90.1717 10.3472 89.9812 10.5391 89.8463 10.8109C89.7113 11.0828 89.6399 11.3787 89.6399 11.6985C89.6399 12.0983 89.751 12.4502 89.9653 12.746C90.1796 13.0419 90.4972 13.1858 90.902 13.1858H99.562V16.7042Z" fill="#FF3838"/>
<path d="M122.796 16.7042H116.303C114.247 16.7042 112.628 16.1844 111.421 15.1449C110.477 14.3293 109.81 13.2258 109.421 11.8185C109.167 10.8989 109.032 9.89938 109.032 8.81189C109.032 8.56401 109.032 8.38809 109.04 8.28414C109.048 8.18019 109.056 8.09223 109.072 8.01227V0.31189H112.668V8.01227C112.668 9.39562 112.953 10.5631 113.533 11.5146C114.2 12.6021 115.12 13.1538 116.295 13.1538H122.788V16.7042H122.796Z" fill="#FF3838"/>
<path d="M140.362 16.7041H136.512L132.258 4.07806C132.234 3.94213 132.139 3.87816 131.98 3.87816C131.829 3.87816 131.718 3.94213 131.647 4.07806L127.487 16.6961H123.582C123.804 15.9205 124.281 14.3692 125.011 12.0503C125.741 9.7314 126.455 7.54043 127.146 5.46941C127.916 3.16649 128.392 1.88709 128.559 1.63121C128.876 1.17543 129.345 0.823595 129.956 0.583708C130.567 0.34382 131.234 0.223877 131.956 0.223877C132.679 0.223877 133.337 0.34382 133.949 0.583708C134.56 0.823595 135.02 1.17543 135.338 1.63121C135.536 1.90309 136.012 3.17449 136.774 5.44542C137.243 6.84476 137.949 9.03573 138.878 12.0263C139.457 13.8495 139.95 15.4007 140.362 16.7041Z" fill="#FF3838"/>
<path d="M157.539 13.4018C157.539 14.4413 157.11 15.2969 156.261 15.9765C155.459 16.6082 154.507 16.9281 153.396 16.9281C152.435 16.9281 151.578 16.6722 150.808 16.1605C149.959 15.5847 149.347 14.7691 148.998 13.7056C148.927 13.4897 148.601 12.3303 148.022 10.2113C147.498 8.29216 147.037 6.79686 146.649 5.71737C146.109 4.23807 145.664 3.5264 145.331 3.56638C145.109 3.62236 144.95 3.71032 144.863 3.83826C144.775 3.9662 144.728 4.15011 144.728 4.382V16.6962H141.132V3.54239C141.132 2.34296 141.584 1.43139 142.481 0.799685C143.251 0.263937 144.243 -0.00793457 145.45 -0.00793457C147.069 -0.00793457 148.347 0.807682 149.3 2.44691C149.943 3.54239 150.546 5.30956 151.125 7.74842C151.768 10.4352 152.229 12.0984 152.522 12.7461C152.681 13.0979 152.927 13.2658 153.253 13.2658C153.427 13.2658 153.586 13.1939 153.713 13.0499C153.84 12.906 153.904 12.7061 153.904 12.4582V0.175979H157.531V13.4018H157.539Z" fill="#FF3838"/>
<path d="M166.985 16.7042H159.031V0.31189H166.985C168.866 0.31189 170.366 1.17548 171.485 2.91067C172.501 4.47793 173.002 6.38903 173.002 8.63597C173.002 10.8349 172.501 12.6901 171.509 14.1934C170.406 15.8646 168.898 16.7042 166.985 16.7042ZM166.389 13.1459C167.239 13.1459 167.929 12.6421 168.445 11.6426C168.914 10.731 169.152 9.6355 169.152 8.34811C169.152 7.10069 168.922 6.04519 168.469 5.19759C167.961 4.25403 167.271 3.77426 166.389 3.77426H162.635V13.1459H166.389Z" fill="#FF3838"/>
<path d="M192.624 3.77426H188.949V16.7042H185.393V3.77426H181.726V0.31189H192.624V3.77426Z" fill="black"/>
<path d="M207.618 16.7042L197.37 12.6181V16.6962H193.822V11.2587C193.822 9.95535 194.14 8.89185 194.783 8.09223C195.529 7.14867 196.624 6.68489 198.077 6.68489H202.49C202.895 6.68489 203.213 6.54096 203.435 6.26109C203.657 5.98122 203.768 5.64538 203.768 5.26156C203.768 4.85375 203.665 4.50991 203.451 4.23005C203.213 3.91819 202.887 3.76626 202.49 3.76626H193.83V0.31189H203.093C204.483 0.31189 205.578 0.823649 206.388 1.85516C207.118 2.78273 207.483 3.92619 207.483 5.27755C207.483 6.62092 207.118 7.75639 206.388 8.68395C205.578 9.72346 204.483 10.2352 203.093 10.2352H200.855L207.626 12.842V16.7042H207.618Z" fill="black"/>
<path d="M225.12 16.7041H221.27L217.016 4.07806C216.992 3.94213 216.897 3.87816 216.738 3.87816C216.587 3.87816 216.476 3.94213 216.405 4.07806L212.245 16.6961H208.34C208.562 15.9205 209.038 14.3692 209.769 12.0503C210.499 9.7314 211.213 7.54043 211.904 5.46941C212.674 3.16649 213.15 1.88709 213.317 1.63121C213.634 1.17543 214.103 0.823595 214.714 0.583708C215.325 0.34382 215.992 0.223877 216.714 0.223877C217.436 0.223877 218.095 0.34382 218.706 0.583708C219.318 0.823595 219.778 1.17543 220.096 1.63121C220.294 1.90309 220.77 3.17449 221.532 5.44542C222.001 6.84476 222.707 9.03573 223.636 12.0263C224.223 13.8495 224.707 15.4007 225.12 16.7041Z" fill="black"/>
<path d="M241.187 0.415833C240.837 1.61527 240.361 3.17454 239.758 5.09363C239.004 7.5085 238.289 9.71546 237.622 11.7225C236.86 14.0094 236.384 15.2968 236.194 15.5687C235.884 16.0165 235.416 16.3683 234.789 16.6162C234.162 16.8641 233.495 16.992 232.796 16.992C232.074 16.992 231.415 16.8721 230.804 16.6322C230.193 16.3923 229.732 16.0405 229.415 15.5687C229.216 15.3128 228.74 14.0334 227.978 11.7305C227.518 10.3472 226.811 8.1322 225.875 5.10163C225.089 2.59081 224.605 1.02355 224.406 0.407837H228.272L232.511 13.1378C232.534 13.2738 232.63 13.3378 232.788 13.3378C232.947 13.3378 233.066 13.2738 233.138 13.1378L237.281 0.407837H241.187V0.415833Z" fill="black"/>
<path d="M254.799 16.7042H245.536C244.147 16.7042 243.052 16.1844 242.242 15.1369C241.512 14.2014 241.146 13.0419 241.146 11.6745C241.146 10.4431 241.456 9.37163 242.067 8.46805C241.456 7.56448 241.146 6.50897 241.146 5.29354C241.146 3.95018 241.512 2.81471 242.242 1.87915C243.052 0.83964 244.147 0.327881 245.536 0.327881H254.799V3.79025H246.139C245.75 3.79025 245.441 3.94218 245.211 4.23804C244.98 4.5339 244.869 4.88574 244.869 5.28555C244.869 5.67736 244.98 6.01321 245.195 6.28508C245.409 6.56495 245.727 6.70088 246.131 6.70088H254.799V10.1473V10.2432H245.647C245.409 10.3472 245.219 10.5391 245.084 10.8109C244.949 11.0828 244.877 11.3787 244.877 11.6985C244.877 12.0983 244.988 12.4502 245.203 12.746C245.417 13.0419 245.734 13.1858 246.139 13.1858H254.799V16.7042Z" fill="black"/>
<path d="M270 16.7042H263.507C261.451 16.7042 259.832 16.1844 258.626 15.1449C257.681 14.3293 257.014 13.2258 256.625 11.8185C256.371 10.8989 256.236 9.89938 256.236 8.81189C256.236 8.56401 256.236 8.38809 256.244 8.28414C256.252 8.18019 256.26 8.09223 256.276 8.01227V0.31189H259.872V8.01227C259.872 9.39562 260.158 10.5631 260.737 11.5146C261.404 12.6021 262.325 13.1538 263.499 13.1538H269.992V16.7042H270Z" fill="black"/>
</g>
<defs>
<clipPath id="clip0_1044_384">
<rect width="270" height="17" fill="white"/>
</clipPath>
</defs>
</svg>
